<svg width="1043" height="728" viewBox="0 0 1043 728" fill="none" xmlns="http://www.w3.org/2000/svg">
<g clip-path="url(#clip0)">
<path d="M875 18H0V488.679H875V18Z" fill="#03244D"/>
<path d="M29.8 42.8C30.9067 42.8 31.78 43.1733 32.42 43.92C33.0733 44.6667 33.4 45.6733 33.4 46.94V50.04C33.4 51.32 33.0733 52.3333 32.42 53.08C31.78 53.8267 30.9067 54.2 29.8 54.2C28.9867 54.2 28.32 53.9933 27.8 53.58C27.28 53.1667 26.9667 52.6067 26.86 51.9H26.78L26.84 54.46V57.6H24.68V43H26.82V45.1H26.86C26.9533 44.38 27.26 43.82 27.78 43.42C28.3 43.0067 28.9733 42.8 29.8 42.8ZM31.24 47.06C31.24 46.2867 31.0533 45.7 30.68 45.3C30.3067 44.8867 29.7667 44.68 29.06 44.68C28.38 44.68 27.84 44.8933 27.44 45.32C27.04 45.7333 26.84 46.3133 26.84 47.06V49.94C26.84 50.6867 27.04 51.2733 27.44 51.7C27.84 52.1133 28.38 52.32 29.06 52.32C29.7667 52.32 30.3067 52.12 30.68 51.72C31.0533 51.3067 31.24 50.7133 31.24 49.94V47.06ZM41.0722 42.82C42.4055 42.82 43.4522 43.1467 44.2122 43.8C44.9722 44.4533 45.3522 45.3467 45.3522 46.48V54H43.2522V51.98H43.2322C43.1389 52.66 42.7789 53.2 42.1522 53.6C41.5389 54 40.7722 54.2 39.8522 54.2C38.7322 54.2 37.8389 53.9067 37.1722 53.32C36.5189 52.72 36.1922 51.92 36.1922 50.92C36.1922 49.8533 36.5389 49.02 37.2322 48.42C37.9255 47.82 38.8922 47.52 40.1322 47.52H43.1922V46.52C43.1922 45.92 43.0055 45.46 42.6322 45.14C42.2589 44.8067 41.7255 44.64 41.0322 44.64C40.4189 44.64 39.9189 44.7667 39.5322 45.02C39.1589 45.26 38.9322 45.6 38.8522 46.04H36.7322C36.8522 45.0667 37.3055 44.2867 38.0922 43.7C38.8789 43.1133 39.8722 42.82 41.0722 42.82ZM40.4722 52.54C41.2855 52.54 41.9389 52.3533 42.4322 51.98C42.9389 51.5933 43.1922 51.08 43.1922 50.44V49H40.1722C39.6122 49 39.1655 49.16 38.8322 49.48C38.5122 49.7867 38.3522 50.2067 38.3522 50.74C38.3522 51.3 38.5389 51.74 38.9122 52.06C39.2989 52.38 39.8189 52.54 40.4722 52.54ZM53.0644 54.2C51.691 54.2 50.5977 53.82 49.7844 53.06C48.9844 52.3 48.5844 51.26 48.5844 49.94V47.06C48.5844 45.74 48.9844 44.7 49.7844 43.94C50.5977 43.18 51.691 42.8 53.0644 42.8C54.3844 42.8 55.4444 43.1467 56.2444 43.84C57.0444 44.5333 57.4644 45.48 57.5044 46.68H55.3444C55.3044 46.0533 55.0844 45.5667 54.6844 45.22C54.2844 44.8733 53.7444 44.7 53.0644 44.7C52.331 44.7 51.7577 44.9067 51.3444 45.32C50.9444 45.72 50.7444 46.2933 50.7444 47.04V49.94C50.7444 50.6867 50.9444 51.2667 51.3444 51.68C51.7577 52.0933 52.331 52.3 53.0644 52.3C53.7444 52.3 54.2844 52.1267 54.6844 51.78C55.0844 51.4333 55.3044 50.94 55.3444 50.3H57.5044C57.4644 51.5 57.0444 52.4533 56.2444 53.16C55.4444 53.8533 54.3844 54.2 53.0644 54.2ZM62.8766 54H60.7166V39.4H62.8766V47.42H64.6766L67.5966 43H70.0366L66.5366 48.28L70.0966 54H67.6166L64.6766 49.28H62.8766V54ZM77.0488 42.82C78.3821 42.82 79.4288 43.1467 80.1888 43.8C80.9488 44.4533 81.3288 45.3467 81.3288 46.48V54H79.2288V51.98H79.2088C79.1154 52.66 78.7554 53.2 78.1288 53.6C77.5154 54 76.7488 54.2 75.8288 54.2C74.7088 54.2 73.8154 53.9067 73.1488 53.32C72.4954 52.72 72.1688 51.92 72.1688 50.92C72.1688 49.8533 72.5154 49.02 73.2088 48.42C73.9021 47.82 74.8688 47.52 76.1087 47.52H79.1688V46.52C79.1688 45.92 78.9821 45.46 78.6088 45.14C78.2354 44.8067 77.7021 44.64 77.0088 44.64C76.3954 44.64 75.8954 44.7667 75.5088 45.02C75.1354 45.26 74.9088 45.6 74.8288 46.04H72.7088C72.8288 45.0667 73.2821 44.2867 74.0688 43.7C74.8554 43.1133 75.8488 42.82 77.0488 42.82ZM76.4488 52.54C77.2621 52.54 77.9154 52.3533 78.4088 51.98C78.9154 51.5933 79.1688 51.08 79.1688 50.44V49H76.1488C75.5888 49 75.1421 49.16 74.8088 49.48C74.4888 49.7867 74.3288 50.2067 74.3288 50.74C74.3288 51.3 74.5154 51.74 74.8888 52.06C75.2754 52.38 75.7954 52.54 76.4488 52.54ZM91.1409 43H93.2609V54.2C93.2609 55.2533 92.9209 56.08 92.2409 56.68C91.5743 57.2933 90.6543 57.6 89.4809 57.6H86.0809V55.74H89.4609C90.5676 55.74 91.1209 55.2133 91.1209 54.16V53.06L91.1809 51.44H90.9809C90.8343 52.04 90.5143 52.5067 90.0209 52.84C89.5409 53.16 88.9276 53.32 88.1809 53.32C87.0743 53.32 86.1943 52.9467 85.5409 52.2C84.8876 51.4533 84.5609 50.44 84.5609 49.16V46.94C84.5609 45.6733 84.8876 44.6667 85.5409 43.92C86.1943 43.1733 87.0743 42.8 88.1809 42.8C88.9276 42.8 89.5409 42.9667 90.0209 43.3C90.5143 43.62 90.8343 44.08 90.9809 44.68H91.1809L91.1409 43ZM91.1209 47.06C91.1209 46.3133 90.9209 45.7333 90.5209 45.32C90.1343 44.8933 89.6009 44.68 88.9209 44.68C88.2143 44.68 87.6676 44.8867 87.2809 45.3C86.9076 45.7 86.7209 46.2867 86.7209 47.06V49.06C86.7209 49.8333 86.9076 50.4267 87.2809 50.84C87.6676 51.2533 88.2143 51.46 88.9209 51.46C89.6009 51.46 90.1343 51.2533 90.5209 50.84C90.9209 50.4133 91.1209 49.82 91.1209 49.06V47.06ZM105.353 49.02H98.6331V49.94C98.6331 50.7533 98.8265 51.3733 99.2131 51.8C99.6131 52.2267 100.2 52.44 100.973 52.44C101.6 52.44 102.093 52.3333 102.453 52.12C102.826 51.8933 103.06 51.5667 103.153 51.14H105.313C105.153 52.0733 104.68 52.82 103.893 53.38C103.106 53.9267 102.126 54.2 100.953 54.2C99.6065 54.2 98.5331 53.8133 97.7331 53.04C96.9465 52.2533 96.5531 51.22 96.5531 49.94V47.06C96.5531 45.7667 96.9465 44.7333 97.7331 43.96C98.5331 43.1867 99.6065 42.8 100.953 42.8C102.3 42.8 103.366 43.1867 104.153 43.96C104.953 44.7333 105.353 45.7667 105.353 47.06V49.02ZM98.6331 47.56L103.273 47.54V47.04C103.273 46.2267 103.073 45.6067 102.673 45.18C102.286 44.74 101.713 44.52 100.953 44.52C100.193 44.52 99.6131 44.74 99.2131 45.18C98.8265 45.62 98.6331 46.2467 98.6331 47.06V47.56ZM129.338 49.02H122.618V49.94C122.618 50.7533 122.811 51.3733 123.198 51.8C123.598 52.2267 124.184 52.44 124.958 52.44C125.584 52.44 126.078 52.3333 126.438 52.12C126.811 51.8933 127.044 51.5667 127.138 51.14H129.298C129.138 52.0733 128.664 52.82 127.878 53.38C127.091 53.9267 126.111 54.2 124.938 54.2C123.591 54.2 122.518 53.8133 121.718 53.04C120.931 52.2533 120.538 51.22 120.538 49.94V47.06C120.538 45.7667 120.931 44.7333 121.718 43.96C122.518 43.1867 123.591 42.8 124.938 42.8C126.284 42.8 127.351 43.1867 128.138 43.96C128.938 44.7333 129.338 45.7667 129.338 47.06V49.02ZM122.618 47.56L127.258 47.54V47.04C127.258 46.2267 127.058 45.6067 126.658 45.18C126.271 44.74 125.698 44.52 124.938 44.52C124.178 44.52 123.598 44.74 123.198 45.18C122.811 45.62 122.618 46.2467 122.618 47.06V47.56ZM139.09 39.4H141.25V54H139.11V51.9H139.07C138.963 52.62 138.65 53.1867 138.13 53.6C137.623 54 136.956 54.2 136.13 54.2C135.023 54.2 134.143 53.8267 133.49 53.08C132.85 52.3333 132.53 51.3267 132.53 50.06V46.96C132.53 45.68 132.85 44.6667 133.49 43.92C134.143 43.1733 135.023 42.8 136.13 42.8C136.943 42.8 137.61 43.0067 138.13 43.42C138.65 43.8333 138.963 44.3933 139.07 45.1H139.15L139.09 42.54V39.4ZM136.89 52.32C137.57 52.32 138.103 52.1133 138.49 51.7C138.89 51.2733 139.09 50.6867 139.09 49.94V47.06C139.09 46.3133 138.89 45.7333 138.49 45.32C138.103 44.8933 137.57 44.68 136.89 44.68C136.183 44.68 135.636 44.8867 135.25 45.3C134.876 45.7 134.69 46.2867 134.69 47.06V49.94C134.69 50.7133 134.876 51.3067 135.25 51.72C135.636 52.12 136.183 52.32 136.89 52.32ZM148.902 54.2C147.569 54.2 146.509 53.82 145.722 53.06C144.949 52.2867 144.562 51.24 144.562 49.92V43H146.722V49.9C146.722 50.66 146.915 51.2533 147.302 51.68C147.689 52.1067 148.222 52.32 148.902 52.32C149.595 52.32 150.135 52.1067 150.522 51.68C150.922 51.2533 151.122 50.66 151.122 49.9V43H153.282V49.92C153.282 51.24 152.882 52.2867 152.082 53.06C151.295 53.82 150.235 54.2 148.902 54.2ZM160.694 54.2C160.227 54.2 159.841 54.04 159.534 53.72C159.227 53.4 159.074 52.9933 159.074 52.5C159.074 52.02 159.227 51.62 159.534 51.3C159.841 50.98 160.227 50.82 160.694 50.82H161.154C161.621 50.82 162.007 50.98 162.314 51.3C162.621 51.62 162.774 52.02 162.774 52.5C162.774 52.9933 162.621 53.4 162.314 53.72C162.007 54.04 161.621 54.2 161.154 54.2H160.694ZM172.986 42.82C174.32 42.82 175.366 43.1467 176.126 43.8C176.886 44.4533 177.266 45.3467 177.266 46.48V54H175.166V51.98H175.146C175.053 52.66 174.693 53.2 174.066 53.6C173.453 54 172.686 54.2 171.766 54.2C170.646 54.2 169.753 53.9067 169.086 53.32C168.433 52.72 168.106 51.92 168.106 50.92C168.106 49.8533 168.453 49.02 169.146 48.42C169.84 47.82 170.806 47.52 172.046 47.52H175.106V46.52C175.106 45.92 174.92 45.46 174.546 45.14C174.173 44.8067 173.64 44.64 172.946 44.64C172.333 44.64 171.833 44.7667 171.446 45.02C171.073 45.26 170.846 45.6 170.766 46.04H168.646C168.766 45.0667 169.22 44.2867 170.006 43.7C170.793 43.1133 171.786 42.82 172.986 42.82ZM172.386 52.54C173.2 52.54 173.853 52.3533 174.346 51.98C174.853 51.5933 175.106 51.08 175.106 50.44V49H172.086C171.526 49 171.08 49.16 170.746 49.48C170.426 49.7867 170.266 50.2067 170.266 50.74C170.266 51.3 170.453 51.74 170.826 52.06C171.213 52.38 171.733 52.54 172.386 52.54ZM184.878 54.2C183.545 54.2 182.485 53.82 181.698 53.06C180.925 52.2867 180.538 51.24 180.538 49.92V43H182.698V49.9C182.698 50.66 182.892 51.2533 183.278 51.68C183.665 52.1067 184.198 52.32 184.878 52.32C185.572 52.32 186.112 52.1067 186.498 51.68C186.898 51.2533 187.098 50.66 187.098 49.9V43H189.258V49.92C189.258 51.24 188.858 52.2867 188.058 53.06C187.272 53.82 186.212 54.2 184.878 54.2ZM197.691 42.8C198.797 42.8 199.671 43.1733 200.311 43.92C200.964 44.6667 201.291 45.68 201.291 46.96V50.06C201.291 51.3267 200.964 52.3333 200.311 53.08C199.671 53.8267 198.797 54.2 197.691 54.2C196.864 54.2 196.191 54 195.671 53.6C195.164 53.1867 194.857 52.62 194.751 51.9H194.711V54H192.571V39.4H194.731V42.54L194.671 45.1H194.751C194.857 44.3933 195.171 43.8333 195.691 43.42C196.211 43.0067 196.877 42.8 197.691 42.8ZM199.131 47.06C199.131 46.2867 198.937 45.7 198.551 45.3C198.177 44.8867 197.637 44.68 196.931 44.68C196.251 44.68 195.711 44.8933 195.311 45.32C194.924 45.7333 194.731 46.3133 194.731 47.06V49.94C194.731 50.6867 194.924 51.2733 195.311 51.7C195.711 52.1133 196.251 52.32 196.931 52.32C197.637 52.32 198.177 52.12 198.551 51.72C198.937 51.3067 199.131 50.7133 199.131 49.94V47.06ZM208.863 54.2C207.529 54.2 206.469 53.82 205.683 53.06C204.909 52.2867 204.523 51.24 204.523 49.92V43H206.683V49.9C206.683 50.66 206.876 51.2533 207.263 51.68C207.649 52.1067 208.183 52.32 208.863 52.32C209.556 52.32 210.096 52.1067 210.483 51.68C210.883 51.2533 211.083 50.66 211.083 49.9V43H213.243V49.92C213.243 51.24 212.843 52.2867 212.043 53.06C211.256 53.82 210.196 54.2 208.863 54.2ZM221.955 42.8C223.128 42.8 224.055 43.1667 224.735 43.9C225.428 44.62 225.775 45.6133 225.775 46.88V47.62H223.555V47.06C223.555 46.2867 223.355 45.6867 222.955 45.26C222.568 44.8333 222.022 44.62 221.315 44.62C220.608 44.62 220.055 44.8333 219.655 45.26C219.268 45.6867 219.075 46.2867 219.075 47.06V54H216.915V43H218.995V45.06C219.342 43.5533 220.328 42.8 221.955 42.8ZM233.627 42.8C234.721 42.8 235.594 43.1533 236.247 43.86C236.901 44.5533 237.227 45.4933 237.227 46.68V54H235.067V46.92C235.067 46.2 234.874 45.64 234.487 45.24C234.101 44.84 233.574 44.64 232.907 44.64C232.227 44.64 231.687 44.8533 231.287 45.28C230.901 45.7067 230.707 46.3 230.707 47.06V54H228.547V43H230.687V45.1H230.727C230.821 44.3667 231.121 43.8 231.627 43.4C232.134 43 232.801 42.8 233.627 42.8ZM244.659 45.98C244.193 45.98 243.813 45.8333 243.519 45.54C243.226 45.2333 243.079 44.8467 243.079 44.38C243.079 43.9267 243.226 43.5533 243.519 43.26C243.826 42.9533 244.206 42.8 244.659 42.8H245.059C245.513 42.8 245.893 42.9533 246.199 43.26C246.506 43.5533 246.659 43.9267 246.659 44.38C246.659 44.8467 246.506 45.2333 246.199 45.54C245.906 45.8333 245.526 45.98 245.059 45.98H244.659ZM244.019 57.2H242.119L243.719 50.98H246.619L244.019 57.2ZM29.08 104.2C27.7067 104.2 26.6133 103.82 25.8 103.06C25 102.3 24.6 101.26 24.6 99.94V97.06C24.6 95.74 25 94.7 25.8 93.94C26.6133 93.18 27.7067 92.8 29.08 92.8C30.4 92.8 31.46 93.1467 32.26 93.84C33.06 94.5333 33.48 95.48 33.52 96.68H31.36C31.32 96.0533 31.1 95.5667 30.7 95.22C30.3 94.8733 29.76 94.7 29.08 94.7C28.3467 94.7 27.7733 94.9067 27.36 95.32C26.96 95.72 26.76 96.2933 26.76 97.04V99.94C26.76 100.687 26.96 101.267 27.36 101.68C27.7733 102.093 28.3467 102.3 29.08 102.3C29.76 102.3 30.3 102.127 30.7 101.78C31.1 101.433 31.32 100.94 31.36 100.3H33.52C33.48 101.5 33.06 102.453 32.26 103.16C31.46 103.853 30.4 104.2 29.08 104.2ZM42.4522 104C41.4122 104 40.5789 103.7 39.9522 103.1C39.3389 102.487 39.0322 101.673 39.0322 100.66V91.36H35.7122V89.4H41.1922V100.66C41.1922 101.087 41.3122 101.427 41.5522 101.68C41.7922 101.92 42.1189 102.04 42.5322 102.04H46.0922V104H42.4522ZM53.0644 92.82C54.3977 92.82 55.4444 93.1467 56.2044 93.8C56.9644 94.4533 57.3444 95.3467 57.3444 96.48V104H55.2444V101.98H55.2244C55.131 102.66 54.771 103.2 54.1444 103.6C53.531 104 52.7644 104.2 51.8444 104.2C50.7244 104.2 49.831 103.907 49.1644 103.32C48.511 102.72 48.1844 101.92 48.1844 100.92C48.1844 99.8533 48.531 99.02 49.2244 98.42C49.9177 97.82 50.8844 97.52 52.1244 97.52H55.1844V96.52C55.1844 95.92 54.9977 95.46 54.6244 95.14C54.251 94.8067 53.7177 94.64 53.0244 94.64C52.411 94.64 51.911 94.7667 51.5244 95.02C51.151 95.26 50.9244 95.6 50.8444 96.04H48.7244C48.8444 95.0667 49.2977 94.2867 50.0844 93.7C50.871 93.1133 51.8644 92.82 53.0644 92.82ZM52.4644 102.54C53.2777 102.54 53.931 102.353 54.4244 101.98C54.931 101.593 55.1844 101.08 55.1844 100.44V99H52.1644C51.6044 99 51.1577 99.16 50.8244 99.48C50.5044 99.7867 50.3444 100.207 50.3444 100.74C50.3444 101.3 50.531 101.74 50.9044 102.06C51.291 102.38 51.811 102.54 52.4644 102.54ZM64.5366 104.2C63.3499 104.2 62.3899 103.927 61.6566 103.38C60.9366 102.82 60.5432 102.073 60.4766 101.14H62.6366C62.6899 101.513 62.8832 101.813 63.2166 102.04C63.5499 102.267 63.9899 102.38 64.5366 102.38H65.3766C66.0299 102.38 66.5232 102.247 66.8566 101.98C67.1899 101.713 67.3566 101.353 67.3566 100.9C67.3566 100.473 67.2099 100.14 66.9166 99.9C66.6232 99.66 66.1832 99.4933 65.5966 99.4L64.1766 99.18C62.9899 99.0067 62.1166 98.6733 61.5566 98.18C61.0099 97.6733 60.7366 96.9467 60.7366 96C60.7366 94.9867 61.0699 94.2 61.7366 93.64C62.4166 93.08 63.3966 92.8 64.6766 92.8H65.4366C66.5566 92.8 67.4632 93.0667 68.1566 93.6C68.8632 94.12 69.2632 94.8267 69.3566 95.72H67.1966C67.1299 95.3867 66.9432 95.12 66.6366 94.92C66.3299 94.72 65.9299 94.62 65.4366 94.62H64.6766C63.4766 94.62 62.8766 95.0867 62.8766 96.02C62.8766 96.42 62.9966 96.72 63.2366 96.92C63.4766 97.12 63.8766 97.26 64.4366 97.34L65.8766 97.56C67.1299 97.7467 68.0432 98.1 68.6166 98.62C69.2032 99.1267 69.4966 99.8667 69.4966 100.84C69.4966 101.907 69.1432 102.733 68.4366 103.32C67.7432 103.907 66.7232 104.2 65.3766 104.2H64.5366ZM76.5288 104.2C75.3421 104.2 74.3821 103.927 73.6488 103.38C72.9288 102.82 72.5354 102.073 72.4688 101.14H74.6288C74.6821 101.513 74.8754 101.813 75.2088 102.04C75.5421 102.267 75.9821 102.38 76.5288 102.38H77.3688C78.0221 102.38 78.5154 102.247 78.8488 101.98C79.1821 101.713 79.3488 101.353 79.3488 100.9C79.3488 100.473 79.2021 100.14 78.9088 99.9C78.6154 99.66 78.1754 99.4933 77.5888 99.4L76.1688 99.18C74.9821 99.0067 74.1088 98.6733 73.5488 98.18C73.0021 97.6733 72.7288 96.9467 72.7288 96C72.7288 94.9867 73.0621 94.2 73.7288 93.64C74.4088 93.08 75.3888 92.8 76.6688 92.8H77.4288C78.5488 92.8 79.4554 93.0667 80.1488 93.6C80.8554 94.12 81.2554 94.8267 81.3488 95.72H79.1888C79.1221 95.3867 78.9354 95.12 78.6288 94.92C78.3221 94.72 77.9221 94.62 77.4288 94.62H76.6688C75.4688 94.62 74.8688 95.0867 74.8688 96.02C74.8688 96.42 74.9888 96.72 75.2288 96.92C75.4688 97.12 75.8688 97.26 76.4288 97.34L77.8688 97.56C79.1221 97.7467 80.0354 98.1 80.6088 98.62C81.1954 99.1267 81.4888 99.8667 81.4888 100.84C81.4888 101.907 81.1354 102.733 80.4288 103.32C79.7354 103.907 78.7154 104.2 77.3688 104.2H76.5288ZM98.0131 104H95.8131L99.5331 89.4H102.373L106.113 104H103.913L103.033 100.3H98.8931L98.0131 104ZM99.2931 98.5H102.613L101.613 94.3C101.28 92.9133 101.06 91.8867 100.953 91.22C100.833 91.9 100.613 92.92 100.293 94.28L99.2931 98.5ZM112.945 104.2C111.559 104.2 110.479 103.82 109.705 103.06C108.945 102.3 108.565 101.253 108.565 99.92V89.4H110.725V99.9C110.725 100.66 110.912 101.253 111.285 101.68C111.659 102.093 112.212 102.3 112.945 102.3C113.665 102.3 114.212 102.093 114.585 101.68C114.972 101.253 115.165 100.66 115.165 99.9V89.4H117.325V99.92C117.325 101.253 116.939 102.3 116.165 103.06C115.405 103.82 114.332 104.2 112.945 104.2ZM122.798 104H120.638V89.4H122.798V95.44H127.078V89.4H129.238V104H127.078V97.44H122.798V104ZM137.01 92.82C138.343 92.82 139.39 93.1467 140.15 93.8C140.91 94.4533 141.29 95.3467 141.29 96.48V104H139.19V101.98H139.17C139.076 102.66 138.716 103.2 138.09 103.6C137.476 104 136.71 104.2 135.79 104.2C134.67 104.2 133.776 103.907 133.11 103.32C132.456 102.72 132.13 101.92 132.13 100.92C132.13 99.8533 132.476 99.02 133.17 98.42C133.863 97.82 134.83 97.52 136.07 97.52H139.13V96.52C139.13 95.92 138.943 95.46 138.57 95.14C138.196 94.8067 137.663 94.64 136.97 94.64C136.356 94.64 135.856 94.7667 135.47 95.02C135.096 95.26 134.87 95.6 134.79 96.04H132.67C132.79 95.0667 133.243 94.2867 134.03 93.7C134.816 93.1133 135.81 92.82 137.01 92.82ZM136.41 102.54C137.223 102.54 137.876 102.353 138.37 101.98C138.876 101.593 139.13 101.08 139.13 100.44V99H136.11C135.55 99 135.103 99.16 134.77 99.48C134.45 99.7867 134.29 100.207 134.29 100.74C134.29 101.3 134.476 101.74 134.85 102.06C135.236 102.38 135.756 102.54 136.41 102.54ZM149.002 104.2C147.629 104.2 146.535 103.82 145.722 103.06C144.922 102.3 144.522 101.26 144.522 99.94V97.06C144.522 95.74 144.922 94.7 145.722 93.94C146.535 93.18 147.629 92.8 149.002 92.8C150.322 92.8 151.382 93.1467 152.182 93.84C152.982 94.5333 153.402 95.48 153.442 96.68H151.282C151.242 96.0533 151.022 95.5667 150.622 95.22C150.222 94.8733 149.682 94.7 149.002 94.7C148.269 94.7 147.695 94.9067 147.282 95.32C146.882 95.72 146.682 96.2933 146.682 97.04V99.94C146.682 100.687 146.882 101.267 147.282 101.68C147.695 102.093 148.269 102.3 149.002 102.3C149.682 102.3 150.222 102.127 150.622 101.78C151.022 101.433 151.242 100.94 151.282 100.3H153.442C153.402 101.5 152.982 102.453 152.182 103.16C151.382 103.853 150.322 104.2 149.002 104.2ZM158.814 104H156.654V89.4H158.814V97.42H160.614L163.534 93H165.974L162.474 98.28L166.034 104H163.554L160.614 99.28H158.814V104ZM172.466 104.2C171.28 104.2 170.32 103.927 169.586 103.38C168.866 102.82 168.473 102.073 168.406 101.14H170.566C170.62 101.513 170.813 101.813 171.146 102.04C171.48 102.267 171.92 102.38 172.466 102.38H173.306C173.96 102.38 174.453 102.247 174.786 101.98C175.12 101.713 175.286 101.353 175.286 100.9C175.286 100.473 175.14 100.14 174.846 99.9C174.553 99.66 174.113 99.4933 173.526 99.4L172.106 99.18C170.92 99.0067 170.046 98.6733 169.486 98.18C168.94 97.6733 168.666 96.9467 168.666 96C168.666 94.9867 169 94.2 169.666 93.64C170.346 93.08 171.326 92.8 172.606 92.8H173.366C174.486 92.8 175.393 93.0667 176.086 93.6C176.793 94.12 177.193 94.8267 177.286 95.72H175.126C175.06 95.3867 174.873 95.12 174.566 94.92C174.26 94.72 173.86 94.62 173.366 94.62H172.606C171.406 94.62 170.806 95.0867 170.806 96.02C170.806 96.42 170.926 96.72 171.166 96.92C171.406 97.12 171.806 97.26 172.366 97.34L173.806 97.56C175.06 97.7467 175.973 98.1 176.546 98.62C177.133 99.1267 177.426 99.8667 177.426 100.84C177.426 101.907 177.073 102.733 176.366 103.32C175.673 103.907 174.653 104.2 173.306 104.2H172.466ZM200.291 89.36C199.731 89.36 199.297 89.4933 198.991 89.76C198.697 90.0133 198.571 90.4 198.611 90.92L198.811 94.12C198.851 94.84 198.684 95.44 198.311 95.92C197.937 96.3867 197.397 96.68 196.691 96.8C197.384 96.9067 197.917 97.2 198.291 97.68C198.677 98.16 198.851 98.76 198.811 99.48L198.611 102.68C198.571 103.187 198.697 103.573 198.991 103.84C199.297 104.107 199.731 104.24 200.291 104.24H201.251V106.2H200.111C198.951 106.2 198.031 105.893 197.351 105.28C196.684 104.667 196.384 103.833 196.451 102.78L196.651 99.6C196.677 98.96 196.557 98.5 196.291 98.22C196.024 97.9267 195.537 97.78 194.831 97.78H192.531V95.82H194.831C195.537 95.82 196.024 95.68 196.291 95.4C196.557 95.12 196.677 94.6533 196.651 94L196.451 90.8C196.384 89.7467 196.684 88.92 197.351 88.32C198.017 87.7067 198.937 87.4 200.111 87.4H201.251V89.36H200.291ZM77.0688 141.22C76.6554 141.22 76.3221 141.107 76.0688 140.88C75.8288 140.653 75.7088 140.353 75.7088 139.98C75.7088 139.593 75.8288 139.287 76.0688 139.06C76.3221 138.82 76.6554 138.7 77.0688 138.7H77.4688C77.8688 138.7 78.1954 138.82 78.4488 139.06C78.7021 139.3 78.8288 139.607 78.8288 139.98C78.8288 140.353 78.7021 140.653 78.4488 140.88C78.1954 141.107 77.8621 141.22 77.4488 141.22H77.0688ZM82.0288 154H72.5088V152.04H76.3888V144.96H73.0088V143H78.4888V152.04H82.0288V154ZM89.7209 142.8C90.8143 142.8 91.6876 143.153 92.3409 143.86C92.9943 144.553 93.3209 145.493 93.3209 146.68V154H91.1609V146.92C91.1609 146.2 90.9676 145.64 90.5809 145.24C90.1943 144.84 89.6676 144.64 89.0009 144.64C88.3209 144.64 87.7809 144.853 87.3809 145.28C86.9943 145.707 86.8009 146.3 86.8009 147.06V154H84.6409V143H86.7809V145.1H86.8209C86.9143 144.367 87.2143 143.8 87.7209 143.4C88.2276 143 88.8943 142.8 89.7209 142.8ZM102.153 154C101.153 154 100.373 153.727 99.8131 153.18C99.2531 152.633 98.9731 151.867 98.9731 150.88V144.96H95.9331V143H98.9731V140H101.133V143H105.453V144.96H101.133V150.88C101.133 151.28 101.22 151.573 101.393 151.76C101.58 151.947 101.866 152.04 102.253 152.04H105.253V154H102.153ZM122.438 157.6L124.018 153.36L119.938 143H122.298L124.538 149.2C124.698 149.667 124.871 150.287 125.058 151.06C125.244 150.273 125.411 149.653 125.558 149.2L127.638 143H129.938L124.718 157.6H122.438ZM141.33 149.02H134.61V149.94C134.61 150.753 134.803 151.373 135.19 151.8C135.59 152.227 136.176 152.44 136.95 152.44C137.576 152.44 138.07 152.333 138.43 152.12C138.803 151.893 139.036 151.567 139.13 151.14H141.29C141.13 152.073 140.656 152.82 139.87 153.38C139.083 153.927 138.103 154.2 136.93 154.2C135.583 154.2 134.51 153.813 133.71 153.04C132.923 152.253 132.53 151.22 132.53 149.94V147.06C132.53 145.767 132.923 144.733 133.71 143.96C134.51 143.187 135.583 142.8 136.93 142.8C138.276 142.8 139.343 143.187 140.13 143.96C140.93 144.733 141.33 145.767 141.33 147.06V149.02ZM134.61 147.56L139.25 147.54V147.04C139.25 146.227 139.05 145.607 138.65 145.18C138.263 144.74 137.69 144.52 136.93 144.52C136.17 144.52 135.59 144.74 135.19 145.18C134.803 145.62 134.61 146.247 134.61 147.06V147.56ZM149.002 142.82C150.335 142.82 151.382 143.147 152.142 143.8C152.902 144.453 153.282 145.347 153.282 146.48V154H151.182V151.98H151.162C151.069 152.66 150.709 153.2 150.082 153.6C149.469 154 148.702 154.2 147.782 154.2C146.662 154.2 145.769 153.907 145.102 153.32C144.449 152.72 144.122 151.92 144.122 150.92C144.122 149.853 144.469 149.02 145.162 148.42C145.855 147.82 146.822 147.52 148.062 147.52H151.122V146.52C151.122 145.92 150.935 145.46 150.562 145.14C150.189 144.807 149.655 144.64 148.962 144.64C148.349 144.64 147.849 144.767 147.462 145.02C147.089 145.26 146.862 145.6 146.782 146.04H144.662C144.782 145.067 145.235 144.287 146.022 143.7C146.809 143.113 147.802 142.82 149.002 142.82ZM148.402 152.54C149.215 152.54 149.869 152.353 150.362 151.98C150.869 151.593 151.122 151.08 151.122 150.44V149H148.102C147.542 149 147.095 149.16 146.762 149.48C146.442 149.787 146.282 150.207 146.282 150.74C146.282 151.3 146.469 151.74 146.842 152.06C147.229 152.38 147.749 152.54 148.402 152.54ZM161.994 142.8C163.167 142.8 164.094 143.167 164.774 143.9C165.467 144.62 165.814 145.613 165.814 146.88V147.62H163.594V147.06C163.594 146.287 163.394 145.687 162.994 145.26C162.607 144.833 162.061 144.62 161.354 144.62C160.647 144.62 160.094 144.833 159.694 145.26C159.307 145.687 159.114 146.287 159.114 147.06V154H156.954V143H159.034V145.06C159.381 143.553 160.367 142.8 161.994 142.8ZM172.706 145.98C172.24 145.98 171.86 145.833 171.566 145.54C171.273 145.233 171.126 144.847 171.126 144.38C171.126 143.927 171.273 143.553 171.566 143.26C171.873 142.953 172.253 142.8 172.706 142.8H173.106C173.56 142.8 173.94 142.953 174.246 143.26C174.553 143.553 174.706 143.927 174.706 144.38C174.706 144.847 174.553 145.233 174.246 145.54C173.953 145.833 173.573 145.98 173.106 145.98H172.706ZM172.066 157.2H170.166L171.766 150.98H174.666L172.066 157.2ZM77.0488 204.2C75.6754 204.2 74.5821 203.82 73.7688 203.06C72.9688 202.3 72.5688 201.26 72.5688 199.94V197.06C72.5688 195.74 72.9688 194.7 73.7688 193.94C74.5821 193.18 75.6754 192.8 77.0488 192.8C78.3688 192.8 79.4288 193.147 80.2288 193.84C81.0288 194.533 81.4488 195.48 81.4888 196.68H79.3288C79.2888 196.053 79.0688 195.567 78.6688 195.22C78.2688 194.873 77.7288 194.7 77.0488 194.7C76.3154 194.7 75.7421 194.907 75.3288 195.32C74.9288 195.72 74.7288 196.293 74.7288 197.04V199.94C74.7288 200.687 74.9288 201.267 75.3288 201.68C75.7421 202.093 76.3154 202.3 77.0488 202.3C77.7288 202.3 78.2688 202.127 78.6688 201.78C79.0688 201.433 79.2888 200.94 79.3288 200.3H81.4888C81.4488 201.5 81.0288 202.453 80.2288 203.16C79.4288 203.853 78.3688 204.2 77.0488 204.2ZM88.9609 204.2C87.6009 204.2 86.5276 203.82 85.7409 203.06C84.9543 202.287 84.5609 201.247 84.5609 199.94V197.06C84.5609 195.753 84.9543 194.72 85.7409 193.96C86.5276 193.187 87.6009 192.8 88.9609 192.8C90.3209 192.8 91.3943 193.18 92.1809 193.94C92.9676 194.7 93.3609 195.733 93.3609 197.04V199.94C93.3609 201.247 92.9676 202.287 92.1809 203.06C91.3943 203.82 90.3209 204.2 88.9609 204.2ZM88.9609 202.3C89.6809 202.3 90.2343 202.1 90.6209 201.7C91.0076 201.3 91.2009 200.713 91.2009 199.94V197.06C91.2009 196.287 91.0076 195.7 90.6209 195.3C90.2343 194.9 89.6809 194.7 88.9609 194.7C88.2409 194.7 87.6876 194.9 87.3009 195.3C86.9143 195.7 86.7209 196.287 86.7209 197.06V199.94C86.7209 200.713 86.9143 201.3 87.3009 201.7C87.6876 202.1 88.2409 202.3 88.9609 202.3ZM101.713 192.8C102.806 192.8 103.68 193.153 104.333 193.86C104.986 194.553 105.313 195.493 105.313 196.68V204H103.153V196.92C103.153 196.2 102.96 195.64 102.573 195.24C102.186 194.84 101.66 194.64 100.993 194.64C100.313 194.64 99.7731 194.853 99.3731 195.28C98.9865 195.707 98.7931 196.3 98.7931 197.06V204H96.6331V193H98.7731V195.1H98.8131C98.9065 194.367 99.2065 193.8 99.7131 193.4C100.22 193 100.886 192.8 101.713 192.8ZM112.505 204.2C111.319 204.2 110.359 203.927 109.625 203.38C108.905 202.82 108.512 202.073 108.445 201.14H110.605C110.659 201.513 110.852 201.813 111.185 202.04C111.519 202.267 111.959 202.38 112.505 202.38H113.345C113.999 202.38 114.492 202.247 114.825 201.98C115.159 201.713 115.325 201.353 115.325 200.9C115.325 200.473 115.179 200.14 114.885 199.9C114.592 199.66 114.152 199.493 113.565 199.4L112.145 199.18C110.959 199.007 110.085 198.673 109.525 198.18C108.979 197.673 108.705 196.947 108.705 196C108.705 194.987 109.039 194.2 109.705 193.64C110.385 193.08 111.365 192.8 112.645 192.8H113.405C114.525 192.8 115.432 193.067 116.125 193.6C116.832 194.12 117.232 194.827 117.325 195.72H115.165C115.099 195.387 114.912 195.12 114.605 194.92C114.299 194.72 113.899 194.62 113.405 194.62H112.645C111.445 194.62 110.845 195.087 110.845 196.02C110.845 196.42 110.965 196.72 111.205 196.92C111.445 197.12 111.845 197.26 112.405 197.34L113.845 197.56C115.099 197.747 116.012 198.1 116.585 198.62C117.172 199.127 117.465 199.867 117.465 200.84C117.465 201.907 117.112 202.733 116.405 203.32C115.712 203.907 114.692 204.2 113.345 204.2H112.505ZM126.138 204C125.138 204 124.358 203.727 123.798 203.18C123.238 202.633 122.958 201.867 122.958 200.88V194.96H119.918V193H122.958V190H125.118V193H129.438V194.96H125.118V200.88C125.118 201.28 125.204 201.573 125.378 201.76C125.564 201.947 125.851 202.04 126.238 202.04H129.238V204H126.138ZM138.01 192.8C139.183 192.8 140.11 193.167 140.79 193.9C141.483 194.62 141.83 195.613 141.83 196.88V197.62H139.61V197.06C139.61 196.287 139.41 195.687 139.01 195.26C138.623 194.833 138.076 194.62 137.37 194.62C136.663 194.62 136.11 194.833 135.71 195.26C135.323 195.687 135.13 196.287 135.13 197.06V204H132.97V193H135.05V195.06C135.396 193.553 136.383 192.8 138.01 192.8ZM148.902 204.2C147.569 204.2 146.509 203.82 145.722 203.06C144.949 202.287 144.562 201.24 144.562 199.92V193H146.722V199.9C146.722 200.66 146.915 201.253 147.302 201.68C147.689 202.107 148.222 202.32 148.902 202.32C149.595 202.32 150.135 202.107 150.522 201.68C150.922 201.253 151.122 200.66 151.122 199.9V193H153.282V199.92C153.282 201.24 152.882 202.287 152.082 203.06C151.295 203.82 150.235 204.2 148.902 204.2ZM160.994 204.2C159.621 204.2 158.527 203.82 157.714 203.06C156.914 202.3 156.514 201.26 156.514 199.94V197.06C156.514 195.74 156.914 194.7 157.714 193.94C158.527 193.18 159.621 192.8 160.994 192.8C162.314 192.8 163.374 193.147 164.174 193.84C164.974 194.533 165.394 195.48 165.434 196.68H163.274C163.234 196.053 163.014 195.567 162.614 195.22C162.214 194.873 161.674 194.7 160.994 194.7C160.261 194.7 159.687 194.907 159.274 195.32C158.874 195.72 158.674 196.293 158.674 197.04V199.94C158.674 200.687 158.874 201.267 159.274 201.68C159.687 202.093 160.261 202.3 160.994 202.3C161.674 202.3 162.214 202.127 162.614 201.78C163.014 201.433 163.234 200.94 163.274 200.3H165.434C165.394 201.5 164.974 202.453 164.174 203.16C163.374 203.853 162.314 204.2 160.994 204.2ZM174.106 204C173.106 204 172.326 203.727 171.766 203.18C171.206 202.633 170.926 201.867 170.926 200.88V194.96H167.886V193H170.926V190H173.086V193H177.406V194.96H173.086V200.88C173.086 201.28 173.173 201.573 173.346 201.76C173.533 201.947 173.82 202.04 174.206 202.04H177.206V204H174.106ZM184.898 204.2C183.538 204.2 182.465 203.82 181.678 203.06C180.892 202.287 180.498 201.247 180.498 199.94V197.06C180.498 195.753 180.892 194.72 181.678 193.96C182.465 193.187 183.538 192.8 184.898 192.8C186.258 192.8 187.332 193.18 188.118 193.94C188.905 194.7 189.298 195.733 189.298 197.04V199.94C189.298 201.247 188.905 202.287 188.118 203.06C187.332 203.82 186.258 204.2 184.898 204.2ZM184.898 202.3C185.618 202.3 186.172 202.1 186.558 201.7C186.945 201.3 187.138 200.713 187.138 199.94V197.06C187.138 196.287 186.945 195.7 186.558 195.3C186.172 194.9 185.618 194.7 184.898 194.7C184.178 194.7 183.625 194.9 183.238 195.3C182.852 195.7 182.658 196.287 182.658 197.06V199.94C182.658 200.713 182.852 201.3 183.238 201.7C183.625 202.1 184.178 202.3 184.898 202.3ZM197.971 192.8C199.144 192.8 200.071 193.167 200.751 193.9C201.444 194.62 201.791 195.613 201.791 196.88V197.62H199.571V197.06C199.571 196.287 199.371 195.687 198.971 195.26C198.584 194.833 198.037 194.62 197.331 194.62C196.624 194.62 196.071 194.833 195.671 195.26C195.284 195.687 195.091 196.287 195.091 197.06V204H192.931V193H195.011V195.06C195.357 193.553 196.344 192.8 197.971 192.8ZM212.583 206.5C210.623 206.007 209.103 205.08 208.023 203.72C206.943 202.347 206.403 200.673 206.403 198.7V194.9C206.403 192.967 206.949 191.307 208.043 189.92C209.149 188.533 210.663 187.593 212.583 187.1V189.18C211.343 189.487 210.363 190.153 209.643 191.18C208.923 192.193 208.563 193.433 208.563 194.9V198.7C208.563 200.153 208.923 201.387 209.643 202.4C210.363 203.4 211.343 204.047 212.583 204.34V206.5ZM220.975 191.22C220.562 191.22 220.228 191.107 219.975 190.88C219.735 190.653 219.615 190.353 219.615 189.98C219.615 189.593 219.735 189.287 219.975 189.06C220.228 188.82 220.562 188.7 220.975 188.7H221.375C221.775 188.7 222.102 188.82 222.355 189.06C222.608 189.3 222.735 189.607 222.735 189.98C222.735 190.353 222.608 190.653 222.355 190.88C222.102 191.107 221.768 191.22 221.355 191.22H220.975ZM225.935 204H216.415V202.04H220.295V194.96H216.915V193H222.395V202.04H225.935V204ZM233.627 192.8C234.721 192.8 235.594 193.153 236.247 193.86C236.901 194.553 237.227 195.493 237.227 196.68V204H235.067V196.92C235.067 196.2 234.874 195.64 234.487 195.24C234.101 194.84 233.574 194.64 232.907 194.64C232.227 194.64 231.687 194.853 231.287 195.28C230.901 195.707 230.707 196.3 230.707 197.06V204H228.547V193H230.687V195.1H230.727C230.821 194.367 231.121 193.8 231.627 193.4C232.134 193 232.801 192.8 233.627 192.8ZM246.059 204C245.059 204 244.279 203.727 243.719 203.18C243.159 202.633 242.879 201.867 242.879 200.88V194.96H239.839V193H242.879V190H245.039V193H249.359V194.96H245.039V200.88C245.039 201.28 245.126 201.573 245.299 201.76C245.486 201.947 245.773 202.04 246.159 202.04H249.159V204H246.059ZM266.344 207.6L267.924 203.36L263.844 193H266.204L268.444 199.2C268.604 199.667 268.777 200.287 268.964 201.06C269.15 200.273 269.317 199.653 269.464 199.2L271.544 193H273.844L268.624 207.6H266.344ZM285.236 199.02H278.516V199.94C278.516 200.753 278.709 201.373 279.096 201.8C279.496 202.227 280.083 202.44 280.856 202.44C281.483 202.44 281.976 202.333 282.336 202.12C282.709 201.893 282.943 201.567 283.036 201.14H285.196C285.036 202.073 284.563 202.82 283.776 203.38C282.989 203.927 282.009 204.2 280.836 204.2C279.489 204.2 278.416 203.813 277.616 203.04C276.829 202.253 276.436 201.22 276.436 199.94V197.06C276.436 195.767 276.829 194.733 277.616 193.96C278.416 193.187 279.489 192.8 280.836 192.8C282.183 192.8 283.249 193.187 284.036 193.96C284.836 194.733 285.236 195.767 285.236 197.06V199.02ZM278.516 197.56L283.156 197.54V197.04C283.156 196.227 282.956 195.607 282.556 195.18C282.169 194.74 281.596 194.52 280.836 194.52C280.076 194.52 279.496 194.74 279.096 195.18C278.709 195.62 278.516 196.247 278.516 197.06V197.56ZM292.908 192.82C294.241 192.82 295.288 193.147 296.048 193.8C296.808 194.453 297.188 195.347 297.188 196.48V204H295.088V201.98H295.068C294.975 202.66 294.615 203.2 293.988 203.6C293.375 204 292.608 204.2 291.688 204.2C290.568 204.2 289.675 203.907 289.008 203.32C288.355 202.72 288.028 201.92 288.028 200.92C288.028 199.853 288.375 199.02 289.068 198.42C289.761 197.82 290.728 197.52 291.968 197.52H295.028V196.52C295.028 195.92 294.841 195.46 294.468 195.14C294.095 194.807 293.561 194.64 292.868 194.64C292.255 194.64 291.755 194.767 291.368 195.02C290.995 195.26 290.768 195.6 290.688 196.04H288.568C288.688 195.067 289.141 194.287 289.928 193.7C290.715 193.113 291.708 192.82 292.908 192.82ZM292.308 202.54C293.121 202.54 293.775 202.353 294.268 201.98C294.775 201.593 295.028 201.08 295.028 200.44V199H292.008C291.448 199 291.001 199.16 290.668 199.48C290.348 199.787 290.188 200.207 290.188 200.74C290.188 201.3 290.375 201.74 290.748 202.06C291.135 202.38 291.655 202.54 292.308 202.54ZM305.9 192.8C307.074 192.8 308 193.167 308.68 193.9C309.374 194.62 309.72 195.613 309.72 196.88V197.62H307.5V197.06C307.5 196.287 307.3 195.687 306.9 195.26C306.514 194.833 305.967 194.62 305.26 194.62C304.554 194.62 304 194.833 303.6 195.26C303.214 195.687 303.02 196.287 303.02 197.06V204H300.86V193H302.94V195.06C303.287 193.553 304.274 192.8 305.9 192.8ZM313.113 204.34C314.353 204.047 315.333 203.4 316.053 202.4C316.773 201.387 317.133 200.153 317.133 198.7V194.9C317.133 193.433 316.773 192.193 316.053 191.18C315.333 190.153 314.353 189.487 313.113 189.18V187.1C315.033 187.593 316.539 188.533 317.633 189.92C318.739 191.307 319.293 192.967 319.293 194.9V198.7C319.293 200.673 318.753 202.347 317.673 203.72C316.593 205.08 315.073 206.007 313.113 206.5V204.34ZM344.197 189.36C343.637 189.36 343.204 189.493 342.897 189.76C342.604 190.013 342.477 190.4 342.517 190.92L342.717 194.12C342.757 194.84 342.59 195.44 342.217 195.92C341.844 196.387 341.304 196.68 340.597 196.8C341.29 196.907 341.824 197.2 342.197 197.68C342.584 198.16 342.757 198.76 342.717 199.48L342.517 202.68C342.477 203.187 342.604 203.573 342.897 203.84C343.204 204.107 343.637 204.24 344.197 204.24H345.157V206.2H344.017C342.857 206.2 341.937 205.893 341.257 205.28C340.59 204.667 340.29 203.833 340.357 202.78L340.557 199.6C340.584 198.96 340.464 198.5 340.197 198.22C339.93 197.927 339.444 197.78 338.737 197.78H336.437V195.82H338.737C339.444 195.82 339.93 195.68 340.197 195.4C340.464 195.12 340.584 194.653 340.557 194L340.357 190.8C340.29 189.747 340.59 188.92 341.257 188.32C341.924 187.707 342.844 187.4 344.017 187.4H345.157V189.36H344.197ZM114.145 229C113.145 229 112.365 228.727 111.805 228.18C111.245 227.633 110.965 226.867 110.965 225.88V219.96H107.925V218H110.965V215H113.125V218H117.445V219.96H113.125V225.88C113.125 226.28 113.212 226.573 113.385 226.76C113.572 226.947 113.859 227.04 114.245 227.04H117.245V229H114.145ZM125.698 217.8C126.791 217.8 127.664 218.153 128.318 218.86C128.971 219.553 129.298 220.493 129.298 221.68V229H127.138V221.92C127.138 221.2 126.944 220.64 126.558 220.24C126.171 219.84 125.644 219.64 124.978 219.64C124.298 219.64 123.758 219.853 123.358 220.28C122.971 220.707 122.778 221.3 122.778 222.06V229H120.618V214.4H122.778V218L122.758 220.1H122.798C122.891 219.367 123.191 218.8 123.698 218.4C124.204 218 124.871 217.8 125.698 217.8ZM137.03 216.22C136.616 216.22 136.283 216.107 136.03 215.88C135.79 215.653 135.67 215.353 135.67 214.98C135.67 214.593 135.79 214.287 136.03 214.06C136.283 213.82 136.616 213.7 137.03 213.7H137.43C137.83 213.7 138.156 213.82 138.41 214.06C138.663 214.3 138.79 214.607 138.79 214.98C138.79 215.353 138.663 215.653 138.41 215.88C138.156 216.107 137.823 216.22 137.41 216.22H137.03ZM141.99 229H132.47V227.04H136.35V219.96H132.97V218H138.45V227.04H141.99V229ZM148.482 229.2C147.295 229.2 146.335 228.927 145.602 228.38C144.882 227.82 144.489 227.073 144.422 226.14H146.582C146.635 226.513 146.829 226.813 147.162 227.04C147.495 227.267 147.935 227.38 148.482 227.38H149.322C149.975 227.38 150.469 227.247 150.802 226.98C151.135 226.713 151.302 226.353 151.302 225.9C151.302 225.473 151.155 225.14 150.862 224.9C150.569 224.66 150.129 224.493 149.542 224.4L148.122 224.18C146.935 224.007 146.062 223.673 145.502 223.18C144.955 222.673 144.682 221.947 144.682 221C144.682 219.987 145.015 219.2 145.682 218.64C146.362 218.08 147.342 217.8 148.622 217.8H149.382C150.502 217.8 151.409 218.067 152.102 218.6C152.809 219.12 153.209 219.827 153.302 220.72H151.142C151.075 220.387 150.889 220.12 150.582 219.92C150.275 219.72 149.875 219.62 149.382 219.62H148.622C147.422 219.62 146.822 220.087 146.822 221.02C146.822 221.42 146.942 221.72 147.182 221.92C147.422 222.12 147.822 222.26 148.382 222.34L149.822 222.56C151.075 222.747 151.989 223.1 152.562 223.62C153.149 224.127 153.442 224.867 153.442 225.84C153.442 226.907 153.089 227.733 152.382 228.32C151.689 228.907 150.669 229.2 149.322 229.2H148.482ZM160.694 229.2C160.227 229.2 159.841 229.04 159.534 228.72C159.227 228.4 159.074 227.993 159.074 227.5C159.074 227.02 159.227 226.62 159.534 226.3C159.841 225.98 160.227 225.82 160.694 225.82H161.154C161.621 225.82 162.007 225.98 162.314 226.3C162.621 226.62 162.774 227.02 162.774 227.5C162.774 227.993 162.621 228.4 162.314 228.72C162.007 229.04 161.621 229.2 161.154 229.2H160.694ZM170.406 232.6L171.986 228.36L167.906 218H170.266L172.506 224.2C172.666 224.667 172.84 225.287 173.026 226.06C173.213 225.273 173.38 224.653 173.526 224.2L175.606 218H177.906L172.686 232.6H170.406ZM189.298 224.02H182.578V224.94C182.578 225.753 182.772 226.373 183.158 226.8C183.558 227.227 184.145 227.44 184.918 227.44C185.545 227.44 186.038 227.333 186.398 227.12C186.772 226.893 187.005 226.567 187.098 226.14H189.258C189.098 227.073 188.625 227.82 187.838 228.38C187.052 228.927 186.072 229.2 184.898 229.2C183.552 229.2 182.478 228.813 181.678 228.04C180.892 227.253 180.498 226.22 180.498 224.94V222.06C180.498 220.767 180.892 219.733 181.678 218.96C182.478 218.187 183.552 217.8 184.898 217.8C186.245 217.8 187.312 218.187 188.098 218.96C188.898 219.733 189.298 220.767 189.298 222.06V224.02ZM182.578 222.56L187.218 222.54V222.04C187.218 221.227 187.018 220.607 186.618 220.18C186.232 219.74 185.658 219.52 184.898 219.52C184.138 219.52 183.558 219.74 183.158 220.18C182.772 220.62 182.578 221.247 182.578 222.06V222.56ZM196.971 217.82C198.304 217.82 199.351 218.147 200.111 218.8C200.871 219.453 201.251 220.347 201.251 221.48V229H199.151V226.98H199.131C199.037 227.66 198.677 228.2 198.051 228.6C197.437 229 196.671 229.2 195.751 229.2C194.631 229.2 193.737 228.907 193.071 228.32C192.417 227.72 192.091 226.92 192.091 225.92C192.091 224.853 192.437 224.02 193.131 223.42C193.824 222.82 194.791 222.52 196.031 222.52H199.091V221.52C199.091 220.92 198.904 220.46 198.531 220.14C198.157 219.807 197.624 219.64 196.931 219.64C196.317 219.64 195.817 219.767 195.431 220.02C195.057 220.26 194.831 220.6 194.751 221.04H192.631C192.751 220.067 193.204 219.287 193.991 218.7C194.777 218.113 195.771 217.82 196.971 217.82ZM196.371 227.54C197.184 227.54 197.837 227.353 198.331 226.98C198.837 226.593 199.091 226.08 199.091 225.44V224H196.071C195.511 224 195.064 224.16 194.731 224.48C194.411 224.787 194.251 225.207 194.251 225.74C194.251 226.3 194.437 226.74 194.811 227.06C195.197 227.38 195.717 227.54 196.371 227.54ZM209.963 217.8C211.136 217.8 212.063 218.167 212.743 218.9C213.436 219.62 213.783 220.613 213.783 221.88V222.62H211.563V222.06C211.563 221.287 211.363 220.687 210.963 220.26C210.576 219.833 210.029 219.62 209.323 219.62C208.616 219.62 208.063 219.833 207.663 220.26C207.276 220.687 207.083 221.287 207.083 222.06V229H204.923V218H207.003V220.06C207.349 218.553 208.336 217.8 209.963 217.8ZM237.207 220.94H228.547V218.98H237.207V220.94ZM237.207 225.8H228.547V223.84H237.207V225.8ZM252.552 229V226.86L257.072 222.2C257.778 221.48 258.292 220.827 258.612 220.24C258.932 219.653 259.092 219.08 259.092 218.52C259.092 217.773 258.885 217.187 258.472 216.76C258.072 216.333 257.518 216.12 256.812 216.12C256.038 216.12 255.425 216.34 254.972 216.78C254.532 217.22 254.312 217.833 254.312 218.62H252.152C252.178 217.273 252.612 216.2 253.452 215.4C254.305 214.6 255.432 214.2 256.832 214.2C258.178 214.2 259.252 214.58 260.052 215.34C260.852 216.1 261.252 217.12 261.252 218.4C261.252 219.267 261.025 220.113 260.572 220.94C260.132 221.767 259.405 222.687 258.392 223.7L255.092 227.04H261.472V229H252.552ZM268.844 229.2C267.457 229.2 266.357 228.807 265.544 228.02C264.73 227.233 264.324 226.18 264.324 224.86V218.52C264.324 217.2 264.73 216.153 265.544 215.38C266.357 214.593 267.457 214.2 268.844 214.2C270.23 214.2 271.33 214.593 272.144 215.38C272.957 216.153 273.364 217.2 273.364 218.52V224.86C273.364 225.727 273.177 226.487 272.804 227.14C272.444 227.793 271.917 228.3 271.224 228.66C270.544 229.02 269.75 229.2 268.844 229.2ZM268.844 227.34C269.59 227.34 270.184 227.113 270.624 226.66C271.077 226.207 271.304 225.607 271.304 224.86V218.52C271.304 217.787 271.077 217.193 270.624 216.74C270.184 216.287 269.59 216.06 268.844 216.06C268.097 216.06 267.497 216.287 267.044 216.74C266.604 217.193 266.384 217.787 266.384 218.52V224.86C266.384 225.607 266.604 226.207 267.044 226.66C267.497 227.113 268.097 227.34 268.844 227.34ZM268.844 222.9C268.55 222.9 268.31 222.8 268.124 222.6C267.937 222.4 267.844 222.133 267.844 221.8V221.5C267.844 221.167 267.937 220.9 268.124 220.7C268.31 220.5 268.55 220.4 268.844 220.4C269.15 220.4 269.39 220.5 269.564 220.7C269.75 220.9 269.844 221.167 269.844 221.5V221.8C269.844 222.133 269.75 222.4 269.564 222.6C269.39 222.8 269.15 222.9 268.844 222.9ZM276.536 229V226.86L281.056 222.2C281.763 221.48 282.276 220.827 282.596 220.24C282.916 219.653 283.076 219.08 283.076 218.52C283.076 217.773 282.869 217.187 282.456 216.76C282.056 216.333 281.503 216.12 280.796 216.12C280.023 216.12 279.409 216.34 278.956 216.78C278.516 217.22 278.296 217.833 278.296 218.62H276.136C276.163 217.273 276.596 216.2 277.436 215.4C278.289 214.6 279.416 214.2 280.816 214.2C282.163 214.2 283.236 214.58 284.036 215.34C284.836 216.1 285.236 217.12 285.236 218.4C285.236 219.267 285.009 220.113 284.556 220.94C284.116 221.767 283.389 222.687 282.376 223.7L279.076 227.04H285.456V229H276.536ZM292.828 229.2C291.441 229.2 290.341 228.807 289.528 228.02C288.715 227.233 288.308 226.18 288.308 224.86V218.52C288.308 217.2 288.715 216.153 289.528 215.38C290.341 214.593 291.441 214.2 292.828 214.2C294.215 214.2 295.315 214.593 296.128 215.38C296.941 216.153 297.348 217.2 297.348 218.52V224.86C297.348 225.727 297.161 226.487 296.788 227.14C296.428 227.793 295.901 228.3 295.208 228.66C294.528 229.02 293.735 229.2 292.828 229.2ZM292.828 227.34C293.575 227.34 294.168 227.113 294.608 226.66C295.061 226.207 295.288 225.607 295.288 224.86V218.52C295.288 217.787 295.061 217.193 294.608 216.74C294.168 216.287 293.575 216.06 292.828 216.06C292.081 216.06 291.481 216.287 291.028 216.74C290.588 217.193 290.368 217.787 290.368 218.52V224.86C290.368 225.607 290.588 226.207 291.028 226.66C291.481 227.113 292.081 227.34 292.828 227.34ZM292.828 222.9C292.535 222.9 292.295 222.8 292.108 222.6C291.921 222.4 291.828 222.133 291.828 221.8V221.5C291.828 221.167 291.921 220.9 292.108 220.7C292.295 220.5 292.535 220.4 292.828 220.4C293.135 220.4 293.375 220.5 293.548 220.7C293.735 220.9 293.828 221.167 293.828 221.5V221.8C293.828 222.133 293.735 222.4 293.548 222.6C293.375 222.8 293.135 222.9 292.828 222.9ZM304.62 220.98C304.154 220.98 303.774 220.833 303.48 220.54C303.187 220.233 303.04 219.847 303.04 219.38C303.04 218.927 303.187 218.553 303.48 218.26C303.787 217.953 304.167 217.8 304.62 217.8H305.02C305.474 217.8 305.854 217.953 306.16 218.26C306.467 218.553 306.62 218.927 306.62 219.38C306.62 219.847 306.467 220.233 306.16 220.54C305.867 220.833 305.487 220.98 305.02 220.98H304.62ZM303.98 232.2H302.08L303.68 225.98H306.58L303.98 232.2ZM81.3288 245.82V247.78H79.0488C78.3421 247.78 77.8488 247.927 77.5688 248.22C77.3021 248.5 77.1888 248.96 77.2288 249.6L77.4288 252.78C77.4821 253.833 77.1688 254.667 76.4888 255.28C75.8221 255.893 74.9088 256.2 73.7488 256.2H72.6088V254.24H73.5688C74.1288 254.24 74.5554 254.107 74.8488 253.84C75.1421 253.573 75.2821 253.187 75.2688 252.68L75.0688 249.48C75.0154 248.76 75.1754 248.16 75.5488 247.68C75.9354 247.2 76.4754 246.907 77.1688 246.8C76.4621 246.68 75.9221 246.387 75.5488 245.92C75.1754 245.44 75.0154 244.84 75.0688 244.12L75.2688 240.92C75.3088 239.88 74.7421 239.36 73.5688 239.36H72.6088V237.4H73.7488C74.9221 237.4 75.8421 237.707 76.5088 238.32C77.1754 238.92 77.4821 239.747 77.4288 240.8L77.2288 244C77.1888 244.653 77.3021 245.12 77.5688 245.4C77.8354 245.68 78.3288 245.82 79.0488 245.82H81.3288ZM77.7688 292.8C78.8754 292.8 79.7488 293.173 80.3888 293.92C81.0421 294.667 81.3688 295.673 81.3688 296.94V300.04C81.3688 301.32 81.0421 302.333 80.3888 303.08C79.7488 303.827 78.8754 304.2 77.7688 304.2C76.9554 304.2 76.2888 303.993 75.7688 303.58C75.2488 303.167 74.9354 302.607 74.8288 301.9H74.7488L74.8088 304.46V307.6H72.6488V293H74.7888V295.1H74.8288C74.9221 294.38 75.2288 293.82 75.7488 293.42C76.2688 293.007 76.9421 292.8 77.7688 292.8ZM79.2088 297.06C79.2088 296.287 79.0221 295.7 78.6488 295.3C78.2754 294.887 77.7354 294.68 77.0288 294.68C76.3488 294.68 75.8088 294.893 75.4088 295.32C75.0088 295.733 74.8088 296.313 74.8088 297.06V299.94C74.8088 300.687 75.0088 301.273 75.4088 301.7C75.8088 302.113 76.3488 302.32 77.0288 302.32C77.7354 302.32 78.2754 302.12 78.6488 301.72C79.0221 301.307 79.2088 300.713 79.2088 299.94V297.06ZM88.9409 304.2C87.6076 304.2 86.5476 303.82 85.7609 303.06C84.9876 302.287 84.6009 301.24 84.6009 299.92V293H86.7609V299.9C86.7609 300.66 86.9543 301.253 87.3409 301.68C87.7276 302.107 88.2609 302.32 88.9409 302.32C89.6343 302.32 90.1743 302.107 90.5609 301.68C90.9609 301.253 91.1609 300.66 91.1609 299.9V293H93.3209V299.92C93.3209 301.24 92.9209 302.287 92.1209 303.06C91.3343 303.82 90.2743 304.2 88.9409 304.2ZM101.753 292.8C102.86 292.8 103.733 293.173 104.373 293.92C105.026 294.667 105.353 295.68 105.353 296.96V300.06C105.353 301.327 105.026 302.333 104.373 303.08C103.733 303.827 102.86 304.2 101.753 304.2C100.926 304.2 100.253 304 99.7331 303.6C99.2265 303.187 98.9198 302.62 98.8131 301.9H98.7731V304H96.6331V289.4H98.7931V292.54L98.7331 295.1H98.8131C98.9198 294.393 99.2331 293.833 99.7531 293.42C100.273 293.007 100.94 292.8 101.753 292.8ZM103.193 297.06C103.193 296.287 103 295.7 102.613 295.3C102.24 294.887 101.7 294.68 100.993 294.68C100.313 294.68 99.7731 294.893 99.3731 295.32C98.9865 295.733 98.7931 296.313 98.7931 297.06V299.94C98.7931 300.687 98.9865 301.273 99.3731 301.7C99.7731 302.113 100.313 302.32 100.993 302.32C101.7 302.32 102.24 302.12 102.613 301.72C103 301.307 103.193 300.713 103.193 299.94V297.06ZM114.405 304C113.365 304 112.532 303.7 111.905 303.1C111.292 302.487 110.985 301.673 110.985 300.66V291.36H107.665V289.4H113.145V300.66C113.145 301.087 113.265 301.427 113.505 301.68C113.745 301.92 114.072 302.04 114.485 302.04H118.045V304H114.405ZM125.038 291.22C124.624 291.22 124.291 291.107 124.038 290.88C123.798 290.653 123.678 290.353 123.678 289.98C123.678 289.593 123.798 289.287 124.038 289.06C124.291 288.82 124.624 288.7 125.038 288.7H125.438C125.838 288.7 126.164 288.82 126.418 289.06C126.671 289.3 126.798 289.607 126.798 289.98C126.798 290.353 126.671 290.653 126.418 290.88C126.164 291.107 125.831 291.22 125.418 291.22H125.038ZM129.998 304H120.478V302.04H124.358V294.96H120.978V293H126.458V302.04H129.998V304ZM137.01 304.2C135.636 304.2 134.543 303.82 133.73 303.06C132.93 302.3 132.53 301.26 132.53 299.94V297.06C132.53 295.74 132.93 294.7 133.73 293.94C134.543 293.18 135.636 292.8 137.01 292.8C138.33 292.8 139.39 293.147 140.19 293.84C140.99 294.533 141.41 295.48 141.45 296.68H139.29C139.25 296.053 139.03 295.567 138.63 295.22C138.23 294.873 137.69 294.7 137.01 294.7C136.276 294.7 135.703 294.907 135.29 295.32C134.89 295.72 134.69 296.293 134.69 297.04V299.94C134.69 300.687 134.89 301.267 135.29 301.68C135.703 302.093 136.276 302.3 137.01 302.3C137.69 302.3 138.23 302.127 138.63 301.78C139.03 301.433 139.25 300.94 139.29 300.3H141.45C141.41 301.5 140.99 302.453 140.19 303.16C139.39 303.853 138.33 304.2 137.01 304.2ZM159.494 304L155.914 293H158.134L160.334 300.02C160.561 300.753 160.767 301.507 160.954 302.28C161.154 301.507 161.361 300.76 161.574 300.04L163.714 293H165.914L162.334 304H159.494ZM172.906 304.2C171.546 304.2 170.473 303.82 169.686 303.06C168.9 302.287 168.506 301.247 168.506 299.94V297.06C168.506 295.753 168.9 294.72 169.686 293.96C170.473 293.187 171.546 292.8 172.906 292.8C174.266 292.8 175.34 293.18 176.126 293.94C176.913 294.7 177.306 295.733 177.306 297.04V299.94C177.306 301.247 176.913 302.287 176.126 303.06C175.34 303.82 174.266 304.2 172.906 304.2ZM172.906 302.3C173.626 302.3 174.18 302.1 174.566 301.7C174.953 301.3 175.146 300.713 175.146 299.94V297.06C175.146 296.287 174.953 295.7 174.566 295.3C174.18 294.9 173.626 294.7 172.906 294.7C172.186 294.7 171.633 294.9 171.246 295.3C170.86 295.7 170.666 296.287 170.666 297.06V299.94C170.666 300.713 170.86 301.3 171.246 301.7C171.633 302.1 172.186 302.3 172.906 302.3ZM184.998 291.22C184.585 291.22 184.252 291.107 183.998 290.88C183.758 290.653 183.638 290.353 183.638 289.98C183.638 289.593 183.758 289.287 183.998 289.06C184.252 288.82 184.585 288.7 184.998 288.7H185.398C185.798 288.7 186.125 288.82 186.378 289.06C186.632 289.3 186.758 289.607 186.758 289.98C186.758 290.353 186.632 290.653 186.378 290.88C186.125 291.107 185.792 291.22 185.378 291.22H184.998ZM189.958 304H180.438V302.04H184.318V294.96H180.938V293H186.418V302.04H189.958V304ZM199.051 289.4H201.211V304H199.071V301.9H199.031C198.924 302.62 198.611 303.187 198.091 303.6C197.584 304 196.917 304.2 196.091 304.2C194.984 304.2 194.104 303.827 193.451 303.08C192.811 302.333 192.491 301.327 192.491 300.06V296.96C192.491 295.68 192.811 294.667 193.451 293.92C194.104 293.173 194.984 292.8 196.091 292.8C196.904 292.8 197.571 293.007 198.091 293.42C198.611 293.833 198.924 294.393 199.031 295.1H199.111L199.051 292.54V289.4ZM196.851 302.32C197.531 302.32 198.064 302.113 198.451 301.7C198.851 301.273 199.051 300.687 199.051 299.94V297.06C199.051 296.313 198.851 295.733 198.451 295.32C198.064 294.893 197.531 294.68 196.851 294.68C196.144 294.68 195.597 294.887 195.211 295.3C194.837 295.7 194.651 296.287 194.651 297.06V299.94C194.651 300.713 194.837 301.307 195.211 301.72C195.597 302.12 196.144 302.32 196.851 302.32ZM220.975 291.22C220.562 291.22 220.228 291.107 219.975 290.88C219.735 290.653 219.615 290.353 219.615 289.98C219.615 289.593 219.735 289.287 219.975 289.06C220.228 288.82 220.562 288.7 220.975 288.7H221.375C221.775 288.7 222.102 288.82 222.355 289.06C222.608 289.3 222.735 289.607 222.735 289.98C222.735 290.353 222.608 290.653 222.355 290.88C222.102 291.107 221.768 291.22 221.355 291.22H220.975ZM225.935 304H216.415V302.04H220.295V294.96H216.915V293H222.395V302.04H225.935V304ZM233.627 292.8C234.721 292.8 235.594 293.153 236.247 293.86C236.901 294.553 237.227 295.493 237.227 296.68V304H235.067V296.92C235.067 296.2 234.874 295.64 234.487 295.24C234.101 294.84 233.574 294.64 232.907 294.64C232.227 294.64 231.687 294.853 231.287 295.28C230.901 295.707 230.707 296.3 230.707 297.06V304H228.547V293H230.687V295.1H230.727C230.821 294.367 231.121 293.8 231.627 293.4C232.134 293 232.801 292.8 233.627 292.8ZM244.959 291.22C244.546 291.22 244.213 291.107 243.959 290.88C243.719 290.653 243.599 290.353 243.599 289.98C243.599 289.593 243.719 289.287 243.959 289.06C244.213 288.82 244.546 288.7 244.959 288.7H245.359C245.759 288.7 246.086 288.82 246.339 289.06C246.593 289.3 246.719 289.607 246.719 289.98C246.719 290.353 246.593 290.653 246.339 290.88C246.086 291.107 245.753 291.22 245.339 291.22H244.959ZM249.919 304H240.399V302.04H244.279V294.96H240.899V293H246.379V302.04H249.919V304ZM258.052 304C257.052 304 256.272 303.727 255.712 303.18C255.152 302.633 254.872 301.867 254.872 300.88V294.96H251.832V293H254.872V290H257.032V293H261.352V294.96H257.032V300.88C257.032 301.28 257.118 301.573 257.292 301.76C257.478 301.947 257.765 302.04 258.152 302.04H261.152V304H258.052ZM272.544 306.5C270.584 306.007 269.064 305.08 267.984 303.72C266.904 302.347 266.364 300.673 266.364 298.7V294.9C266.364 292.967 266.91 291.307 268.004 289.92C269.11 288.533 270.624 287.593 272.544 287.1V289.18C271.304 289.487 270.324 290.153 269.604 291.18C268.884 292.193 268.524 293.433 268.524 294.9V298.7C268.524 300.153 268.884 301.387 269.604 302.4C270.324 303.4 271.304 304.047 272.544 304.34V306.5ZM277.136 304.34C278.376 304.047 279.356 303.4 280.076 302.4C280.796 301.387 281.156 300.153 281.156 298.7V294.9C281.156 293.433 280.796 292.193 280.076 291.18C279.356 290.153 278.376 289.487 277.136 289.18V287.1C279.056 287.593 280.563 288.533 281.656 289.92C282.763 291.307 283.316 292.967 283.316 294.9V298.7C283.316 300.673 282.776 302.347 281.696 303.72C280.616 305.08 279.096 306.007 277.136 306.5V304.34ZM308.22 289.36C307.66 289.36 307.227 289.493 306.92 289.76C306.627 290.013 306.5 290.4 306.54 290.92L306.74 294.12C306.78 294.84 306.614 295.44 306.24 295.92C305.867 296.387 305.327 296.68 304.62 296.8C305.314 296.907 305.847 297.2 306.22 297.68C306.607 298.16 306.78 298.76 306.74 299.48L306.54 302.68C306.5 303.187 306.627 303.573 306.92 303.84C307.227 304.107 307.66 304.24 308.22 304.24H309.18V306.2H308.04C306.88 306.2 305.96 305.893 305.28 305.28C304.614 304.667 304.314 303.833 304.38 302.78L304.58 299.6C304.607 298.96 304.487 298.5 304.22 298.22C303.954 297.927 303.467 297.78 302.76 297.78H300.46V295.82H302.76C303.467 295.82 303.954 295.68 304.22 295.4C304.487 295.12 304.607 294.653 304.58 294L304.38 290.8C304.314 289.747 304.614 288.92 305.28 288.32C305.947 287.707 306.867 287.4 308.04 287.4H309.18V289.36H308.22ZM113.005 329.2C111.539 329.2 110.379 328.84 109.525 328.12C108.685 327.387 108.259 326.393 108.245 325.14H110.405C110.392 325.807 110.619 326.333 111.085 326.72C111.552 327.107 112.192 327.3 113.005 327.3C113.779 327.3 114.385 327.113 114.825 326.74C115.265 326.367 115.485 325.847 115.485 325.18C115.485 324.633 115.332 324.167 115.025 323.78C114.732 323.38 114.312 323.1 113.765 322.94L111.945 322.4C110.865 322.107 110.032 321.593 109.445 320.86C108.859 320.113 108.565 319.22 108.565 318.18C108.565 317.38 108.745 316.68 109.105 316.08C109.479 315.48 109.999 315.013 110.665 314.68C111.345 314.347 112.132 314.18 113.025 314.18C114.359 314.18 115.425 314.547 116.225 315.28C117.025 316 117.439 316.96 117.465 318.16H115.305C115.305 317.52 115.099 317.013 114.685 316.64C114.285 316.267 113.719 316.08 112.985 316.08C112.279 316.08 111.725 316.253 111.325 316.6C110.939 316.947 110.745 317.427 110.745 318.04C110.745 318.6 110.892 319.073 111.185 319.46C111.479 319.847 111.905 320.127 112.465 320.3L114.325 320.84C115.392 321.147 116.212 321.673 116.785 322.42C117.372 323.153 117.665 324.047 117.665 325.1C117.665 325.913 117.472 326.633 117.085 327.26C116.699 327.873 116.152 328.353 115.445 328.7C114.739 329.033 113.925 329.2 113.005 329.2ZM122.438 332.6L124.018 328.36L119.938 318H122.298L124.538 324.2C124.698 324.667 124.871 325.287 125.058 326.06C125.244 325.273 125.411 324.653 125.558 324.2L127.638 318H129.938L124.718 332.6H122.438ZM136.49 329.2C135.303 329.2 134.343 328.927 133.61 328.38C132.89 327.82 132.496 327.073 132.43 326.14H134.59C134.643 326.513 134.836 326.813 135.17 327.04C135.503 327.267 135.943 327.38 136.49 327.38H137.33C137.983 327.38 138.476 327.247 138.81 326.98C139.143 326.713 139.31 326.353 139.31 325.9C139.31 325.473 139.163 325.14 138.87 324.9C138.576 324.66 138.136 324.493 137.55 324.4L136.13 324.18C134.943 324.007 134.07 323.673 133.51 323.18C132.963 322.673 132.69 321.947 132.69 321C132.69 319.987 133.023 319.2 133.69 318.64C134.37 318.08 135.35 317.8 136.63 317.8H137.39C138.51 317.8 139.416 318.067 140.11 318.6C140.816 319.12 141.216 319.827 141.31 320.72H139.15C139.083 320.387 138.896 320.12 138.59 319.92C138.283 319.72 137.883 319.62 137.39 319.62H136.63C135.43 319.62 134.83 320.087 134.83 321.02C134.83 321.42 134.95 321.72 135.19 321.92C135.43 322.12 135.83 322.26 136.39 322.34L137.83 322.56C139.083 322.747 139.996 323.1 140.57 323.62C141.156 324.127 141.45 324.867 141.45 325.84C141.45 326.907 141.096 327.733 140.39 328.32C139.696 328.907 138.676 329.2 137.33 329.2H136.49ZM150.122 329C149.122 329 148.342 328.727 147.782 328.18C147.222 327.633 146.942 326.867 146.942 325.88V319.96H143.902V318H146.942V315H149.102V318H153.422V319.96H149.102V325.88C149.102 326.28 149.189 326.573 149.362 326.76C149.549 326.947 149.835 327.04 150.222 327.04H153.222V329H150.122ZM165.314 324.02H158.594V324.94C158.594 325.753 158.787 326.373 159.174 326.8C159.574 327.227 160.161 327.44 160.934 327.44C161.561 327.44 162.054 327.333 162.414 327.12C162.787 326.893 163.021 326.567 163.114 326.14H165.274C165.114 327.073 164.641 327.82 163.854 328.38C163.067 328.927 162.087 329.2 160.914 329.2C159.567 329.2 158.494 328.813 157.694 328.04C156.907 327.253 156.514 326.22 156.514 324.94V322.06C156.514 320.767 156.907 319.733 157.694 318.96C158.494 318.187 159.567 317.8 160.914 317.8C162.261 317.8 163.327 318.187 164.114 318.96C164.914 319.733 165.314 320.767 165.314 322.06V324.02ZM158.594 322.56L163.234 322.54V322.04C163.234 321.227 163.034 320.607 162.634 320.18C162.247 319.74 161.674 319.52 160.914 319.52C160.154 319.52 159.574 319.74 159.174 320.18C158.787 320.62 158.594 321.247 158.594 322.06V322.56ZM175.546 317.8C176.213 317.8 176.746 318.06 177.146 318.58C177.546 319.087 177.746 319.767 177.746 320.62V329H175.806V320.72C175.806 320.293 175.713 319.967 175.526 319.74C175.353 319.5 175.1 319.38 174.766 319.38C174.433 319.38 174.173 319.493 173.986 319.72C173.813 319.947 173.726 320.273 173.726 320.7V329H172.106V320.72C172.106 320.293 172.013 319.967 171.826 319.74C171.64 319.5 171.373 319.38 171.026 319.38C170.36 319.38 170.026 319.82 170.026 320.7V329H168.086V318H169.906V319.4H170.026C170.093 318.907 170.286 318.52 170.606 318.24C170.926 317.947 171.333 317.8 171.826 317.8C172.28 317.8 172.66 317.94 172.966 318.22C173.273 318.5 173.486 318.893 173.606 319.4H173.706C173.773 318.907 173.973 318.52 174.306 318.24C174.64 317.947 175.053 317.8 175.546 317.8ZM184.678 329.2C184.212 329.2 183.825 329.04 183.518 328.72C183.212 328.4 183.058 327.993 183.058 327.5C183.058 327.02 183.212 326.62 183.518 326.3C183.825 325.98 184.212 325.82 184.678 325.82H185.138C185.605 325.82 185.992 325.98 186.298 326.3C186.605 326.62 186.758 327.02 186.758 327.5C186.758 327.993 186.605 328.4 186.298 328.72C185.992 329.04 185.605 329.2 185.138 329.2H184.678ZM196.891 329.2C195.531 329.2 194.457 328.82 193.671 328.06C192.884 327.287 192.491 326.247 192.491 324.94V322.06C192.491 320.753 192.884 319.72 193.671 318.96C194.457 318.187 195.531 317.8 196.891 317.8C198.251 317.8 199.324 318.18 200.111 318.94C200.897 319.7 201.291 320.733 201.291 322.04V324.94C201.291 326.247 200.897 327.287 200.111 328.06C199.324 328.82 198.251 329.2 196.891 329.2ZM196.891 327.3C197.611 327.3 198.164 327.1 198.551 326.7C198.937 326.3 199.131 325.713 199.131 324.94V322.06C199.131 321.287 198.937 320.7 198.551 320.3C198.164 319.9 197.611 319.7 196.891 319.7C196.171 319.7 195.617 319.9 195.231 320.3C194.844 320.7 194.651 321.287 194.651 322.06V324.94C194.651 325.713 194.844 326.3 195.231 326.7C195.617 327.1 196.171 327.3 196.891 327.3ZM208.863 329.2C207.529 329.2 206.469 328.82 205.683 328.06C204.909 327.287 204.523 326.24 204.523 324.92V318H206.683V324.9C206.683 325.66 206.876 326.253 207.263 326.68C207.649 327.107 208.183 327.32 208.863 327.32C209.556 327.32 210.096 327.107 210.483 326.68C210.883 326.253 211.083 325.66 211.083 324.9V318H213.243V324.92C213.243 326.24 212.843 327.287 212.043 328.06C211.256 328.82 210.196 329.2 208.863 329.2ZM222.075 329C221.075 329 220.295 328.727 219.735 328.18C219.175 327.633 218.895 326.867 218.895 325.88V319.96H215.855V318H218.895V315H221.055V318H225.375V319.96H221.055V325.88C221.055 326.28 221.142 326.573 221.315 326.76C221.502 326.947 221.788 327.04 222.175 327.04H225.175V329H222.075ZM232.647 329.2C232.181 329.2 231.794 329.04 231.487 328.72C231.181 328.4 231.027 327.993 231.027 327.5C231.027 327.02 231.181 326.62 231.487 326.3C231.794 325.98 232.181 325.82 232.647 325.82H233.107C233.574 325.82 233.961 325.98 234.267 326.3C234.574 326.62 234.727 327.02 234.727 327.5C234.727 327.993 234.574 328.4 234.267 328.72C233.961 329.04 233.574 329.2 233.107 329.2H232.647ZM245.659 317.8C246.766 317.8 247.639 318.173 248.279 318.92C248.933 319.667 249.259 320.673 249.259 321.94V325.04C249.259 326.32 248.933 327.333 248.279 328.08C247.639 328.827 246.766 329.2 245.659 329.2C244.846 329.2 244.179 328.993 243.659 328.58C243.139 328.167 242.826 327.607 242.719 326.9H242.639L242.699 329.46V332.6H240.539V318H242.679V320.1H242.719C242.813 319.38 243.119 318.82 243.639 318.42C244.159 318.007 244.833 317.8 245.659 317.8ZM247.099 322.06C247.099 321.287 246.913 320.7 246.539 320.3C246.166 319.887 245.626 319.68 244.919 319.68C244.239 319.68 243.699 319.893 243.299 320.32C242.899 320.733 242.699 321.313 242.699 322.06V324.94C242.699 325.687 242.899 326.273 243.299 326.7C243.699 327.113 244.239 327.32 244.919 327.32C245.626 327.32 246.166 327.12 246.539 326.72C246.913 326.307 247.099 325.713 247.099 324.94V322.06ZM257.932 317.8C259.105 317.8 260.032 318.167 260.712 318.9C261.405 319.62 261.752 320.613 261.752 321.88V322.62H259.532V322.06C259.532 321.287 259.332 320.687 258.932 320.26C258.545 319.833 257.998 319.62 257.292 319.62C256.585 319.62 256.032 319.833 255.632 320.26C255.245 320.687 255.052 321.287 255.052 322.06V329H252.892V318H254.972V320.06C255.318 318.553 256.305 317.8 257.932 317.8ZM268.944 316.22C268.53 316.22 268.197 316.107 267.944 315.88C267.704 315.653 267.584 315.353 267.584 314.98C267.584 314.593 267.704 314.287 267.944 314.06C268.197 313.82 268.53 313.7 268.944 313.7H269.344C269.744 313.7 270.07 313.82 270.324 314.06C270.577 314.3 270.704 314.607 270.704 314.98C270.704 315.353 270.577 315.653 270.324 315.88C270.07 316.107 269.737 316.22 269.324 316.22H268.944ZM273.904 329H264.384V327.04H268.264V319.96H264.884V318H270.364V327.04H273.904V329ZM281.596 317.8C282.689 317.8 283.563 318.153 284.216 318.86C284.869 319.553 285.196 320.493 285.196 321.68V329H283.036V321.92C283.036 321.2 282.843 320.64 282.456 320.24C282.069 319.84 281.543 319.64 280.876 319.64C280.196 319.64 279.656 319.853 279.256 320.28C278.869 320.707 278.676 321.3 278.676 322.06V329H276.516V318H278.656V320.1H278.696C278.789 319.367 279.089 318.8 279.596 318.4C280.103 318 280.769 317.8 281.596 317.8ZM294.028 329C293.028 329 292.248 328.727 291.688 328.18C291.128 327.633 290.848 326.867 290.848 325.88V319.96H287.808V318H290.848V315H293.008V318H297.328V319.96H293.008V325.88C293.008 326.28 293.095 326.573 293.268 326.76C293.455 326.947 293.741 327.04 294.128 327.04H297.128V329H294.028ZM306.28 329C305.24 329 304.407 328.7 303.78 328.1C303.167 327.487 302.86 326.673 302.86 325.66V316.36H299.54V314.4H305.02V325.66C305.02 326.087 305.14 326.427 305.38 326.68C305.62 326.92 305.947 327.04 306.36 327.04H309.92V329H306.28ZM317.573 317.8C318.666 317.8 319.539 318.153 320.193 318.86C320.846 319.553 321.173 320.493 321.173 321.68V329H319.013V321.92C319.013 321.2 318.819 320.64 318.433 320.24C318.046 319.84 317.519 319.64 316.853 319.64C316.173 319.64 315.633 319.853 315.233 320.28C314.846 320.707 314.653 321.3 314.653 322.06V329H312.493V318H314.633V320.1H314.673C314.766 319.367 315.066 318.8 315.573 318.4C316.079 318 316.746 317.8 317.573 317.8ZM332.505 331.5C330.545 331.007 329.025 330.08 327.945 328.72C326.865 327.347 326.325 325.673 326.325 323.7V319.9C326.325 317.967 326.871 316.307 327.965 314.92C329.071 313.533 330.585 312.593 332.505 312.1V314.18C331.265 314.487 330.285 315.153 329.565 316.18C328.845 317.193 328.485 318.433 328.485 319.9V323.7C328.485 325.153 328.845 326.387 329.565 327.4C330.285 328.4 331.265 329.047 332.505 329.34V331.5ZM338.957 319.7H336.057L338.657 313.48H340.557L338.957 319.7ZM343.737 319.7H340.837L343.437 313.48H345.337L343.737 319.7ZM348.789 329L347.209 314.4H349.149L350.129 324.88C350.196 325.56 350.249 326.427 350.289 327.48C350.289 327.453 350.316 327.16 350.369 326.6C350.422 326.04 350.489 325.467 350.569 324.88L351.829 314.4H353.829L355.009 324.88L355.289 327.48C355.342 326.427 355.409 325.567 355.489 324.9L356.489 314.4H358.389L356.729 329H354.229L353.049 318.38L352.809 315.82C352.742 316.807 352.662 317.66 352.569 318.38L351.309 329H348.789ZM369.181 324.02H362.461V324.94C362.461 325.753 362.655 326.373 363.041 326.8C363.441 327.227 364.028 327.44 364.801 327.44C365.428 327.44 365.921 327.333 366.281 327.12C366.655 326.893 366.888 326.567 366.981 326.14H369.141C368.981 327.073 368.508 327.82 367.721 328.38C366.935 328.927 365.955 329.2 364.781 329.2C363.435 329.2 362.361 328.813 361.561 328.04C360.775 327.253 360.381 326.22 360.381 324.94V322.06C360.381 320.767 360.775 319.733 361.561 318.96C362.361 318.187 363.435 317.8 364.781 317.8C366.128 317.8 367.195 318.187 367.981 318.96C368.781 319.733 369.181 320.767 369.181 322.06V324.02ZM362.461 322.56L367.101 322.54V322.04C367.101 321.227 366.901 320.607 366.501 320.18C366.115 319.74 365.541 319.52 364.781 319.52C364.021 319.52 363.441 319.74 363.041 320.18C362.655 320.62 362.461 321.247 362.461 322.06V322.56ZM378.233 329C377.193 329 376.36 328.7 375.733 328.1C375.12 327.487 374.813 326.673 374.813 325.66V316.36H371.493V314.4H376.973V325.66C376.973 326.087 377.093 326.427 377.333 326.68C377.573 326.92 377.9 327.04 378.313 327.04H381.873V329H378.233ZM388.846 329.2C387.472 329.2 386.379 328.82 385.566 328.06C384.766 327.3 384.366 326.26 384.366 324.94V322.06C384.366 320.74 384.766 319.7 385.566 318.94C386.379 318.18 387.472 317.8 388.846 317.8C390.166 317.8 391.226 318.147 392.026 318.84C392.826 319.533 393.246 320.48 393.286 321.68H391.126C391.086 321.053 390.866 320.567 390.466 320.22C390.066 319.873 389.526 319.7 388.846 319.7C388.112 319.7 387.539 319.907 387.126 320.32C386.726 320.72 386.526 321.293 386.526 322.04V324.94C386.526 325.687 386.726 326.267 387.126 326.68C387.539 327.093 388.112 327.3 388.846 327.3C389.526 327.3 390.066 327.127 390.466 326.78C390.866 326.433 391.086 325.94 391.126 325.3H393.286C393.246 326.5 392.826 327.453 392.026 328.16C391.226 328.853 390.166 329.2 388.846 329.2ZM400.758 329.2C399.398 329.2 398.324 328.82 397.538 328.06C396.751 327.287 396.358 326.247 396.358 324.94V322.06C396.358 320.753 396.751 319.72 397.538 318.96C398.324 318.187 399.398 317.8 400.758 317.8C402.118 317.8 403.191 318.18 403.978 318.94C404.764 319.7 405.158 320.733 405.158 322.04V324.94C405.158 326.247 404.764 327.287 403.978 328.06C403.191 328.82 402.118 329.2 400.758 329.2ZM400.758 327.3C401.478 327.3 402.031 327.1 402.418 326.7C402.804 326.3 402.998 325.713 402.998 324.94V322.06C402.998 321.287 402.804 320.7 402.418 320.3C402.031 319.9 401.478 319.7 400.758 319.7C400.038 319.7 399.484 319.9 399.098 320.3C398.711 320.7 398.518 321.287 398.518 322.06V324.94C398.518 325.713 398.711 326.3 399.098 326.7C399.484 327.1 400.038 327.3 400.758 327.3ZM415.39 317.8C416.057 317.8 416.59 318.06 416.99 318.58C417.39 319.087 417.59 319.767 417.59 320.62V329H415.65V320.72C415.65 320.293 415.557 319.967 415.37 319.74C415.197 319.5 414.943 319.38 414.61 319.38C414.277 319.38 414.017 319.493 413.83 319.72C413.657 319.947 413.57 320.273 413.57 320.7V329H411.95V320.72C411.95 320.293 411.857 319.967 411.67 319.74C411.483 319.5 411.217 319.38 410.87 319.38C410.203 319.38 409.87 319.82 409.87 320.7V329H407.93V318H409.75V319.4H409.87C409.937 318.907 410.13 318.52 410.45 318.24C410.77 317.947 411.177 317.8 411.67 317.8C412.123 317.8 412.503 317.94 412.81 318.22C413.117 318.5 413.33 318.893 413.45 319.4H413.55C413.617 318.907 413.817 318.52 414.15 318.24C414.483 317.947 414.897 317.8 415.39 317.8ZM429.142 324.02H422.422V324.94C422.422 325.753 422.616 326.373 423.002 326.8C423.402 327.227 423.989 327.44 424.762 327.44C425.389 327.44 425.882 327.333 426.242 327.12C426.616 326.893 426.849 326.567 426.942 326.14H429.102C428.942 327.073 428.469 327.82 427.682 328.38C426.896 328.927 425.916 329.2 424.742 329.2C423.396 329.2 422.322 328.813 421.522 328.04C420.736 327.253 420.342 326.22 420.342 324.94V322.06C420.342 320.767 420.736 319.733 421.522 318.96C422.322 318.187 423.396 317.8 424.742 317.8C426.089 317.8 427.156 318.187 427.942 318.96C428.742 319.733 429.142 320.767 429.142 322.06V324.02ZM422.422 322.56L427.062 322.54V322.04C427.062 321.227 426.862 320.607 426.462 320.18C426.076 319.74 425.502 319.52 424.742 319.52C423.982 319.52 423.402 319.74 423.002 320.18C422.616 320.62 422.422 321.247 422.422 322.06V322.56ZM449.927 329C448.927 329 448.147 328.727 447.587 328.18C447.027 327.633 446.747 326.867 446.747 325.88V319.96H443.707V318H446.747V315H448.907V318H453.227V319.96H448.907V325.88C448.907 326.28 448.993 326.573 449.167 326.76C449.353 326.947 449.64 327.04 450.027 327.04H453.027V329H449.927ZM460.719 329.2C459.359 329.2 458.285 328.82 457.499 328.06C456.712 327.287 456.319 326.247 456.319 324.94V322.06C456.319 320.753 456.712 319.72 457.499 318.96C458.285 318.187 459.359 317.8 460.719 317.8C462.079 317.8 463.152 318.18 463.939 318.94C464.725 319.7 465.119 320.733 465.119 322.04V324.94C465.119 326.247 464.725 327.287 463.939 328.06C463.152 328.82 462.079 329.2 460.719 329.2ZM460.719 327.3C461.439 327.3 461.992 327.1 462.379 326.7C462.765 326.3 462.959 325.713 462.959 324.94V322.06C462.959 321.287 462.765 320.7 462.379 320.3C461.992 319.9 461.439 319.7 460.719 319.7C459.999 319.7 459.445 319.9 459.059 320.3C458.672 320.7 458.479 321.287 458.479 322.06V324.94C458.479 325.713 458.672 326.3 459.059 326.7C459.445 327.1 459.999 327.3 460.719 327.3ZM481.763 329H479.563L483.283 314.4H486.123L489.863 329H487.663L486.783 325.3H482.643L481.763 329ZM483.043 323.5H486.363L485.363 319.3C485.03 317.913 484.81 316.887 484.703 316.22C484.583 316.9 484.363 317.92 484.043 319.28L483.043 323.5ZM496.675 329.2C495.342 329.2 494.282 328.82 493.495 328.06C492.722 327.287 492.335 326.24 492.335 324.92V318H494.495V324.9C494.495 325.66 494.689 326.253 495.075 326.68C495.462 327.107 495.995 327.32 496.675 327.32C497.369 327.32 497.909 327.107 498.295 326.68C498.695 326.253 498.895 325.66 498.895 324.9V318H501.055V324.92C501.055 326.24 500.655 327.287 499.855 328.06C499.069 328.82 498.009 329.2 496.675 329.2ZM509.488 317.8C510.594 317.8 511.468 318.173 512.108 318.92C512.761 319.667 513.088 320.68 513.088 321.96V325.06C513.088 326.327 512.761 327.333 512.108 328.08C511.468 328.827 510.594 329.2 509.488 329.2C508.661 329.2 507.988 329 507.468 328.6C506.961 328.187 506.654 327.62 506.548 326.9H506.508V329H504.368V314.4H506.528V317.54L506.468 320.1H506.548C506.654 319.393 506.968 318.833 507.488 318.42C508.008 318.007 508.674 317.8 509.488 317.8ZM510.928 322.06C510.928 321.287 510.734 320.7 510.348 320.3C509.974 319.887 509.434 319.68 508.728 319.68C508.048 319.68 507.508 319.893 507.108 320.32C506.721 320.733 506.528 321.313 506.528 322.06V324.94C506.528 325.687 506.721 326.273 507.108 326.7C507.508 327.113 508.048 327.32 508.728 327.32C509.434 327.32 509.974 327.12 510.348 326.72C510.734 326.307 510.928 325.713 510.928 324.94V322.06ZM520.66 329.2C519.326 329.2 518.266 328.82 517.48 328.06C516.706 327.287 516.32 326.24 516.32 324.92V318H518.48V324.9C518.48 325.66 518.673 326.253 519.06 326.68C519.446 327.107 519.98 327.32 520.66 327.32C521.353 327.32 521.893 327.107 522.28 326.68C522.68 326.253 522.88 325.66 522.88 324.9V318H525.04V324.92C525.04 326.24 524.64 327.287 523.84 328.06C523.053 328.82 521.993 329.2 520.66 329.2ZM533.752 317.8C534.925 317.8 535.852 318.167 536.532 318.9C537.225 319.62 537.572 320.613 537.572 321.88V322.62H535.352V322.06C535.352 321.287 535.152 320.687 534.752 320.26C534.365 319.833 533.819 319.62 533.112 319.62C532.405 319.62 531.852 319.833 531.452 320.26C531.065 320.687 530.872 321.287 530.872 322.06V329H528.712V318H530.792V320.06C531.139 318.553 532.125 317.8 533.752 317.8ZM545.424 317.8C546.517 317.8 547.391 318.153 548.044 318.86C548.697 319.553 549.024 320.493 549.024 321.68V329H546.864V321.92C546.864 321.2 546.671 320.64 546.284 320.24C545.897 319.84 545.371 319.64 544.704 319.64C544.024 319.64 543.484 319.853 543.084 320.28C542.697 320.707 542.504 321.3 542.504 322.06V329H540.344V318H542.484V320.1H542.524C542.617 319.367 542.917 318.8 543.424 318.4C543.931 318 544.597 317.8 545.424 317.8ZM566.508 329H564.348V314.4H566.508V320.44H570.788V314.4H572.948V329H570.788V322.44H566.508V329ZM580.721 317.82C582.054 317.82 583.101 318.147 583.861 318.8C584.621 319.453 585.001 320.347 585.001 321.48V329H582.901V326.98H582.881C582.787 327.66 582.427 328.2 581.801 328.6C581.187 329 580.421 329.2 579.501 329.2C578.381 329.2 577.487 328.907 576.821 328.32C576.167 327.72 575.841 326.92 575.841 325.92C575.841 324.853 576.187 324.02 576.881 323.42C577.574 322.82 578.541 322.52 579.781 322.52H582.841V321.52C582.841 320.92 582.654 320.46 582.281 320.14C581.907 319.807 581.374 319.64 580.681 319.64C580.067 319.64 579.567 319.767 579.181 320.02C578.807 320.26 578.581 320.6 578.501 321.04H576.381C576.501 320.067 576.954 319.287 577.741 318.7C578.527 318.113 579.521 317.82 580.721 317.82ZM580.121 327.54C580.934 327.54 581.587 327.353 582.081 326.98C582.587 326.593 582.841 326.08 582.841 325.44V324H579.821C579.261 324 578.814 324.16 578.481 324.48C578.161 324.787 578.001 325.207 578.001 325.74C578.001 326.3 578.187 326.74 578.561 327.06C578.947 327.38 579.467 327.54 580.121 327.54ZM592.713 329.2C591.339 329.2 590.246 328.82 589.433 328.06C588.633 327.3 588.233 326.26 588.233 324.94V322.06C588.233 320.74 588.633 319.7 589.433 318.94C590.246 318.18 591.339 317.8 592.713 317.8C594.033 317.8 595.093 318.147 595.893 318.84C596.693 319.533 597.113 320.48 597.153 321.68H594.993C594.953 321.053 594.733 320.567 594.333 320.22C593.933 319.873 593.393 319.7 592.713 319.7C591.979 319.7 591.406 319.907 590.993 320.32C590.593 320.72 590.393 321.293 590.393 322.04V324.94C590.393 325.687 590.593 326.267 590.993 326.68C591.406 327.093 591.979 327.3 592.713 327.3C593.393 327.3 593.933 327.127 594.333 326.78C594.733 326.433 594.953 325.94 594.993 325.3H597.153C597.113 326.5 596.693 327.453 595.893 328.16C595.093 328.853 594.033 329.2 592.713 329.2ZM602.525 329H600.365V314.4H602.525V322.42H604.325L607.245 318H609.685L606.185 323.28L609.745 329H607.265L604.325 324.28H602.525V329ZM616.177 329.2C614.991 329.2 614.031 328.927 613.297 328.38C612.577 327.82 612.184 327.073 612.117 326.14H614.277C614.331 326.513 614.524 326.813 614.857 327.04C615.191 327.267 615.631 327.38 616.177 327.38H617.017C617.671 327.38 618.164 327.247 618.497 326.98C618.831 326.713 618.997 326.353 618.997 325.9C618.997 325.473 618.851 325.14 618.557 324.9C618.264 324.66 617.824 324.493 617.237 324.4L615.817 324.18C614.631 324.007 613.757 323.673 613.197 323.18C612.651 322.673 612.377 321.947 612.377 321C612.377 319.987 612.711 319.2 613.377 318.64C614.057 318.08 615.037 317.8 616.317 317.8H617.077C618.197 317.8 619.104 318.067 619.797 318.6C620.504 319.12 620.904 319.827 620.997 320.72H618.837C618.771 320.387 618.584 320.12 618.277 319.92C617.971 319.72 617.571 319.62 617.077 319.62H616.317C615.117 319.62 614.517 320.087 614.517 321.02C614.517 321.42 614.637 321.72 614.877 321.92C615.117 322.12 615.517 322.26 616.077 322.34L617.517 322.56C618.771 322.747 619.684 323.1 620.257 323.62C620.844 324.127 621.137 324.867 621.137 325.84C621.137 326.907 620.784 327.733 620.077 328.32C619.384 328.907 618.364 329.2 617.017 329.2H616.177ZM638.762 319.7H635.862L638.462 313.48H640.362L638.762 319.7ZM643.542 319.7H640.642L643.242 313.48H645.142L643.542 319.7ZM665.646 327.12H663.526V323.38H659.826V321.42H663.526V317.66H665.646V321.42H669.346V323.38H665.646V327.12ZM686.07 332.6L687.65 328.36L683.57 318H685.93L688.17 324.2C688.33 324.667 688.504 325.287 688.69 326.06C688.877 325.273 689.044 324.653 689.19 324.2L691.27 318H693.57L688.35 332.6H686.07ZM704.963 324.02H698.243V324.94C698.243 325.753 698.436 326.373 698.823 326.8C699.223 327.227 699.809 327.44 700.583 327.44C701.209 327.44 701.703 327.333 702.063 327.12C702.436 326.893 702.669 326.567 702.763 326.14H704.923C704.763 327.073 704.289 327.82 703.503 328.38C702.716 328.927 701.736 329.2 700.563 329.2C699.216 329.2 698.143 328.813 697.343 328.04C696.556 327.253 696.163 326.22 696.163 324.94V322.06C696.163 320.767 696.556 319.733 697.343 318.96C698.143 318.187 699.216 317.8 700.563 317.8C701.909 317.8 702.976 318.187 703.763 318.96C704.563 319.733 704.963 320.767 704.963 322.06V324.02ZM698.243 322.56L702.883 322.54V322.04C702.883 321.227 702.683 320.607 702.283 320.18C701.896 319.74 701.323 319.52 700.563 319.52C699.803 319.52 699.223 319.74 698.823 320.18C698.436 320.62 698.243 321.247 698.243 322.06V322.56ZM712.635 317.82C713.968 317.82 715.015 318.147 715.775 318.8C716.535 319.453 716.915 320.347 716.915 321.48V329H714.815V326.98H714.795C714.701 327.66 714.341 328.2 713.715 328.6C713.101 329 712.335 329.2 711.415 329.2C710.295 329.2 709.401 328.907 708.735 328.32C708.081 327.72 707.755 326.92 707.755 325.92C707.755 324.853 708.101 324.02 708.795 323.42C709.488 322.82 710.455 322.52 711.695 322.52H714.755V321.52C714.755 320.92 714.568 320.46 714.195 320.14C713.821 319.807 713.288 319.64 712.595 319.64C711.981 319.64 711.481 319.767 711.095 320.02C710.721 320.26 710.495 320.6 710.415 321.04H708.295C708.415 320.067 708.868 319.287 709.655 318.7C710.441 318.113 711.435 317.82 712.635 317.82ZM712.035 327.54C712.848 327.54 713.501 327.353 713.995 326.98C714.501 326.593 714.755 326.08 714.755 325.44V324H711.735C711.175 324 710.728 324.16 710.395 324.48C710.075 324.787 709.915 325.207 709.915 325.74C709.915 326.3 710.101 326.74 710.475 327.06C710.861 327.38 711.381 327.54 712.035 327.54ZM725.627 317.8C726.8 317.8 727.727 318.167 728.407 318.9C729.1 319.62 729.447 320.613 729.447 321.88V322.62H727.227V322.06C727.227 321.287 727.027 320.687 726.627 320.26C726.24 319.833 725.694 319.62 724.987 319.62C724.28 319.62 723.727 319.833 723.327 320.26C722.94 320.687 722.747 321.287 722.747 322.06V329H720.587V318H722.667V320.06C723.014 318.553 724 317.8 725.627 317.8ZM732.839 329.34C734.079 329.047 735.059 328.4 735.779 327.4C736.499 326.387 736.859 325.153 736.859 323.7V319.9C736.859 318.433 736.499 317.193 735.779 316.18C735.059 315.153 734.079 314.487 732.839 314.18V312.1C734.759 312.593 736.266 313.533 737.359 314.92C738.466 316.307 739.019 317.967 739.019 319.9V323.7C739.019 325.673 738.479 327.347 737.399 328.72C736.319 330.08 734.799 331.007 732.839 331.5V329.34ZM748.331 320.98C747.865 320.98 747.485 320.833 747.191 320.54C746.898 320.233 746.751 319.847 746.751 319.38C746.751 318.927 746.898 318.553 747.191 318.26C747.498 317.953 747.878 317.8 748.331 317.8H748.731C749.185 317.8 749.565 317.953 749.871 318.26C750.178 318.553 750.331 318.927 750.331 319.38C750.331 319.847 750.178 320.233 749.871 320.54C749.578 320.833 749.198 320.98 748.731 320.98H748.331ZM747.691 332.2H745.791L747.391 325.98H750.291L747.691 332.2ZM81.3288 345.82V347.78H79.0488C78.3421 347.78 77.8488 347.927 77.5688 348.22C77.3021 348.5 77.1888 348.96 77.2288 349.6L77.4288 352.78C77.4821 353.833 77.1688 354.667 76.4888 355.28C75.8221 355.893 74.9088 356.2 73.7488 356.2H72.6088V354.24H73.5688C74.1288 354.24 74.5554 354.107 74.8488 353.84C75.1421 353.573 75.2821 353.187 75.2688 352.68L75.0688 349.48C75.0154 348.76 75.1754 348.16 75.5488 347.68C75.9354 347.2 76.4754 346.907 77.1688 346.8C76.4621 346.68 75.9221 346.387 75.5488 345.92C75.1754 345.44 75.0154 344.84 75.0688 344.12L75.2688 340.92C75.3088 339.88 74.7421 339.36 73.5688 339.36H72.6088V337.4H73.7488C74.9221 337.4 75.8421 337.707 76.5088 338.32C77.1754 338.92 77.4821 339.747 77.4288 340.8L77.2288 344C77.1888 344.653 77.3021 345.12 77.5688 345.4C77.8354 345.68 78.3288 345.82 79.0488 345.82H81.3288ZM33.36 370.82V372.78H31.08C30.3733 372.78 29.88 372.927 29.6 373.22C29.3333 373.5 29.22 373.96 29.26 374.6L29.46 377.78C29.5133 378.833 29.2 379.667 28.52 380.28C27.8533 380.893 26.94 381.2 25.78 381.2H24.64V379.24H25.6C26.16 379.24 26.5867 379.107 26.88 378.84C27.1733 378.573 27.3133 378.187 27.3 377.68L27.1 374.48C27.0467 373.76 27.2067 373.16 27.58 372.68C27.9667 372.2 28.5067 371.907 29.2 371.8C28.4933 371.68 27.9533 371.387 27.58 370.92C27.2067 370.44 27.0467 369.84 27.1 369.12L27.3 365.92C27.34 364.88 26.7733 364.36 25.6 364.36H24.64V362.4H25.78C26.9533 362.4 27.8733 362.707 28.54 363.32C29.2067 363.92 29.5133 364.747 29.46 365.8L29.26 369C29.22 369.653 29.3333 370.12 29.6 370.4C29.8667 370.68 30.36 370.82 31.08 370.82H33.36Z" fill="#F68026"/>
<path d="M1042.04 724.534H214.435V727.089H1042.04V724.534Z" fill="#03244D"/>
<path d="M784.126 422.667V474.667L791.126 506.667C791.126 506.667 790.126 526.667 791.126 532.667C792.126 538.667 790.126 548.667 784.126 548.667C778.126 548.667 775.126 563.667 775.126 563.667C775.126 563.667 773.126 569.667 768.126 570.667C763.126 571.667 763.126 570.667 763.126 570.667L759.126 580.667L676.126 635.667L692.126 675.667C692.126 675.667 717.126 666.667 719.126 663.667C721.126 660.667 738.126 667.667 738.126 660.667C738.126 653.667 741.126 635.667 747.126 634.667C753.126 633.667 803.126 610.667 803.126 610.667C803.126 610.667 829.126 581.667 831.126 570.667C833.126 559.667 842.126 528.667 842.126 528.667L867.126 570.667V654.667L863.126 699.667L907.126 693.667C907.126 693.667 903.126 665.667 907.126 661.667C911.126 657.667 917.126 609.667 913.126 603.667C909.126 597.667 915.126 570.667 913.126 566.667C911.126 562.667 912.126 533.667 907.126 525.667C902.126 517.667 872.126 435.667 872.126 435.667L784.126 422.667Z" fill="#03244D"/>
<path d="M869.126 697.667C869.126 697.667 854.126 722.667 864.126 725.667C874.126 728.667 893.126 725.667 895.126 725.667C897.126 725.667 933.126 726.667 933.126 726.667C933.126 726.667 957.126 721.667 957.126 714.667C957.126 707.667 942.126 707.667 937.126 706.667C932.126 705.667 901.126 693.667 901.126 693.667L869.126 697.667Z" fill="#03244D"/>
<path d="M680.718 636.795C680.718 636.795 651.816 632.967 653.038 643.336C654.26 653.704 664.564 669.947 665.359 671.782C665.898 673.025 672.214 688.76 676.234 698.788C679.141 706.139 683.507 712.824 689.07 718.44C693.001 722.369 697.286 725.519 700.096 724.302C706.519 721.52 700.557 707.755 699.488 702.77C698.418 697.784 697.108 664.569 697.108 664.569L680.718 636.795Z" fill="#03244D"/>
<path d="M881.626 257.167L913.626 183.167C913.626 183.167 910.626 176.167 903.626 177.167C903.626 177.167 894.126 152.667 876.126 152.667C876.126 152.667 849.126 137.667 841.126 152.667C841.126 152.667 824.126 167.667 825.126 181.667C826.126 195.667 827.126 205.667 827.126 205.667C827.126 205.667 811.126 207.667 814.126 215.667C817.126 223.667 818.126 223.667 814.126 226.667L810.126 229.667C810.126 229.667 727.126 304.667 773.126 414.667L777.126 431.667V447.667C777.126 447.667 878.126 448.667 878.126 447.667C878.126 446.667 876.126 440.667 880.126 436.667C884.126 432.667 884.126 426.667 884.126 426.667C884.126 426.667 880.126 406.667 882.126 400.667C884.126 394.667 885.126 368.667 881.126 362.667C877.126 356.667 879.126 308.667 879.126 308.667L888.126 291.667L885.126 281.667L882.126 271.667L881.626 257.167Z" fill="#8985A8"/>
<path opacity="0.1" d="M873.126 457.667C873.126 457.667 861.126 424.667 862.126 418.667C863.126 412.667 860.126 400.667 860.126 400.667L856.126 319.667C856.126 319.667 873.126 247.667 835.126 235.667C835.126 235.667 825.51 239.862 817.632 253.364C809.841 256.834 800.387 265.616 798.126 287.667C794.126 326.667 812.126 426.667 821.126 443.667C830.126 460.667 836.126 472.667 836.126 472.667L845.532 468.486C845.921 469.256 846.126 469.667 846.126 469.667L873.126 457.667Z" fill="black"/>
<path d="M878.626 248.167C880.283 248.167 881.626 246.824 881.626 245.167C881.626 243.51 880.283 242.167 878.626 242.167C876.969 242.167 875.626 243.51 875.626 245.167C875.626 246.824 876.969 248.167 878.626 248.167Z" fill="#F2F2F2"/>
<path d="M879.626 245.167H877.626V292.167H879.626V245.167Z" fill="#03244D"/>
<path d="M842.626 461.167L850.626 478.167C850.626 478.167 868.626 472.167 868.626 469.167C868.626 466.167 860.626 453.167 860.626 453.167L842.626 461.167Z" fill="#FFB8B8"/>
<path d="M831.126 235.667C831.126 235.667 808.126 245.667 804.126 284.667C800.126 323.667 818.126 423.667 827.126 440.667C836.126 457.667 842.126 469.667 842.126 469.667L869.126 457.667C869.126 457.667 857.126 424.667 858.126 418.667C859.126 412.667 856.126 400.667 856.126 400.667L852.126 319.667C852.126 319.667 869.126 247.667 831.126 235.667Z" fill="#8985A8"/>
</g>
<rect width="875" height="18" fill="white"/>
<rect x="0.5" y="0.5" width="874" height="17" stroke="black" stroke-opacity="0.46"/>
<path d="M14.23 13H9.94V5.7H14.23V6.65H11V8.73H13.88V9.68H11V12.05H14.23V13ZM19.0761 5.7H20.1561V13H19.0861V11.95H19.0661C19.0128 12.31 18.8561 12.5933 18.5961 12.8C18.3428 13 18.0094 13.1 17.5961 13.1C17.0428 13.1 16.6028 12.9133 16.2761 12.54C15.9561 12.1667 15.7961 11.6633 15.7961 11.03V9.48C15.7961 8.84 15.9561 8.33333 16.2761 7.96C16.6028 7.58667 17.0428 7.4 17.5961 7.4C18.0028 7.4 18.3361 7.50333 18.5961 7.71C18.8561 7.91667 19.0128 8.19667 19.0661 8.55H19.1061L19.0761 7.27V5.7ZM17.9761 12.16C18.3161 12.16 18.5828 12.0567 18.7761 11.85C18.9761 11.6367 19.0761 11.3433 19.0761 10.97V9.53C19.0761 9.15667 18.9761 8.86667 18.7761 8.66C18.5828 8.44667 18.3161 8.34 17.9761 8.34C17.6228 8.34 17.3494 8.44333 17.1561 8.65C16.9694 8.85 16.8761 9.14333 16.8761 9.53V10.97C16.8761 11.3567 16.9694 11.6533 17.1561 11.86C17.3494 12.06 17.6228 12.16 17.9761 12.16ZM24.0422 6.61C23.8355 6.61 23.6689 6.55333 23.5422 6.44C23.4222 6.32667 23.3622 6.17667 23.3622 5.99C23.3622 5.79667 23.4222 5.64333 23.5422 5.53C23.6689 5.41 23.8355 5.35 24.0422 5.35H24.2422C24.4422 5.35 24.6055 5.41 24.7322 5.53C24.8589 5.65 24.9222 5.80333 24.9222 5.99C24.9222 6.17667 24.8589 6.32667 24.7322 6.44C24.6055 6.55333 24.4389 6.61 24.2322 6.61H24.0422ZM26.5222 13H21.7622V12.02H23.7022V8.48H22.0122V7.5H24.7522V12.02H26.5222V13ZM30.5883 13C30.0883 13 29.6983 12.8633 29.4183 12.59C29.1383 12.3167 28.9983 11.9333 28.9983 11.44V8.48H27.4783V7.5H28.9983V6H30.0783V7.5H32.2383V8.48H30.0783V11.44C30.0783 11.64 30.1216 11.7867 30.2083 11.88C30.3016 11.9733 30.4449 12.02 30.6383 12.02H32.1383V13H30.5883ZM36.0344 6.61C35.8277 6.61 35.661 6.55333 35.5344 6.44C35.4144 6.32667 35.3544 6.17667 35.3544 5.99C35.3544 5.79667 35.4144 5.64333 35.5344 5.53C35.661 5.41 35.8277 5.35 36.0344 5.35H36.2344C36.4344 5.35 36.5977 5.41 36.7244 5.53C36.851 5.65 36.9144 5.80333 36.9144 5.99C36.9144 6.17667 36.851 6.32667 36.7244 6.44C36.5977 6.55333 36.431 6.61 36.2244 6.61H36.0344ZM38.5144 13H33.7544V12.02H35.6944V8.48H34.0044V7.5H36.7444V12.02H38.5144V13ZM42.3605 7.4C42.9071 7.4 43.3438 7.57667 43.6705 7.93C43.9971 8.27667 44.1605 8.74667 44.1605 9.34V13H43.0805V9.46C43.0805 9.1 42.9838 8.82 42.7905 8.62C42.5971 8.42 42.3338 8.32 42.0005 8.32C41.6605 8.32 41.3905 8.42667 41.1905 8.64C40.9971 8.85333 40.9005 9.15 40.9005 9.53V13H39.8205V7.5H40.8905V8.55H40.9105C40.9571 8.18333 41.1071 7.9 41.3605 7.7C41.6138 7.5 41.9471 7.4 42.3605 7.4ZM49.0666 7.5H50.1266V13.1C50.1266 13.6267 49.9566 14.04 49.6166 14.34C49.2832 14.6467 48.8232 14.8 48.2366 14.8H46.5366V13.87H48.2266C48.7799 13.87 49.0566 13.6067 49.0566 13.08V12.53L49.0866 11.72H48.9866C48.9132 12.02 48.7532 12.2533 48.5066 12.42C48.2666 12.58 47.9599 12.66 47.5866 12.66C47.0332 12.66 46.5932 12.4733 46.2666 12.1C45.9399 11.7267 45.7766 11.22 45.7766 10.58V9.47C45.7766 8.83667 45.9399 8.33333 46.2666 7.96C46.5932 7.58667 47.0332 7.4 47.5866 7.4C47.9599 7.4 48.2666 7.48333 48.5066 7.65C48.7532 7.81 48.9132 8.04 48.9866 8.34H49.0866L49.0666 7.5ZM49.0566 9.53C49.0566 9.15667 48.9566 8.86667 48.7566 8.66C48.5632 8.44667 48.2966 8.34 47.9566 8.34C47.6032 8.34 47.3299 8.44333 47.1366 8.65C46.9499 8.85 46.8566 9.14333 46.8566 9.53V10.53C46.8566 10.9167 46.9499 11.2133 47.1366 11.42C47.3299 11.6267 47.6032 11.73 47.9566 11.73C48.2966 11.73 48.5632 11.6267 48.7566 11.42C48.9566 11.2067 49.0566 10.91 49.0566 10.53V9.53ZM58.4988 13H57.3988L59.2588 5.7H60.6788L62.5488 13H61.4488L61.0088 11.15H58.9388L58.4988 13ZM59.1388 10.25H60.7988L60.2988 8.15C60.1321 7.45667 60.0221 6.94333 59.9688 6.61C59.9088 6.95 59.7988 7.46 59.6388 8.14L59.1388 10.25ZM65.9648 13.1C65.2715 13.1 64.7315 12.91 64.3448 12.53C63.9648 12.15 63.7748 11.6267 63.7748 10.96V5.7H64.8548V10.95C64.8548 11.33 64.9482 11.6267 65.1348 11.84C65.3215 12.0467 65.5982 12.15 65.9648 12.15C66.3248 12.15 66.5982 12.0467 66.7848 11.84C66.9782 11.6267 67.0748 11.33 67.0748 10.95V5.7H68.1548V10.96C68.1548 11.6267 67.9615 12.15 67.5748 12.53C67.1948 12.91 66.6582 13.1 65.9648 13.1ZM70.8909 13H69.8109V5.7H70.8909V8.72H73.0309V5.7H74.1109V13H73.0309V9.72H70.8909V13ZM77.997 7.41C78.6637 7.41 79.187 7.57333 79.567 7.9C79.947 8.22667 80.137 8.67333 80.137 9.24V13H79.087V11.99H79.077C79.0304 12.33 78.8504 12.6 78.537 12.8C78.2304 13 77.847 13.1 77.387 13.1C76.827 13.1 76.3804 12.9533 76.047 12.66C75.7204 12.36 75.557 11.96 75.557 11.46C75.557 10.9267 75.7304 10.51 76.077 10.21C76.4237 9.91 76.907 9.76 77.527 9.76H79.057V9.26C79.057 8.96 78.9637 8.73 78.777 8.57C78.5904 8.40333 78.3237 8.32 77.977 8.32C77.6704 8.32 77.4204 8.38333 77.227 8.51C77.0404 8.63 76.927 8.8 76.887 9.02H75.827C75.887 8.53333 76.1137 8.14333 76.507 7.85C76.9004 7.55667 77.397 7.41 77.997 7.41ZM77.697 12.27C78.1037 12.27 78.4304 12.1767 78.677 11.99C78.9304 11.7967 79.057 11.54 79.057 11.22V10.5H77.547C77.267 10.5 77.0437 10.58 76.877 10.74C76.717 10.8933 76.637 11.1033 76.637 11.37C76.637 11.65 76.7304 11.87 76.917 12.03C77.1104 12.19 77.3704 12.27 77.697 12.27ZM83.9931 13.1C83.3065 13.1 82.7598 12.91 82.3531 12.53C81.9531 12.15 81.7531 11.63 81.7531 10.97V9.53C81.7531 8.87 81.9531 8.35 82.3531 7.97C82.7598 7.59 83.3065 7.4 83.9931 7.4C84.6531 7.4 85.1831 7.57333 85.5831 7.92C85.9831 8.26667 86.1931 8.74 86.2131 9.34H85.1331C85.1131 9.02667 85.0031 8.78333 84.8031 8.61C84.6031 8.43667 84.3331 8.35 83.9931 8.35C83.6265 8.35 83.3398 8.45333 83.1331 8.66C82.9331 8.86 82.8331 9.14667 82.8331 9.52V10.97C82.8331 11.3433 82.9331 11.6333 83.1331 11.84C83.3398 12.0467 83.6265 12.15 83.9931 12.15C84.3331 12.15 84.6031 12.0633 84.8031 11.89C85.0031 11.7167 85.1131 11.47 85.1331 11.15H86.2131C86.1931 11.75 85.9831 12.2267 85.5831 12.58C85.1831 12.9267 84.6531 13.1 83.9931 13.1ZM88.8992 13H87.8192V5.7H88.8992V9.71H89.7992L91.2592 7.5H92.4792L90.7292 10.14L92.5092 13H91.2692L89.7992 10.64H88.8992V13ZM95.7253 13.1C95.132 13.1 94.652 12.9633 94.2853 12.69C93.9253 12.41 93.7286 12.0367 93.6953 11.57H94.7753C94.802 11.7567 94.8986 11.9067 95.0653 12.02C95.232 12.1333 95.452 12.19 95.7253 12.19H96.1453C96.472 12.19 96.7186 12.1233 96.8853 11.99C97.052 11.8567 97.1353 11.6767 97.1353 11.45C97.1353 11.2367 97.062 11.07 96.9153 10.95C96.7686 10.83 96.5486 10.7467 96.2553 10.7L95.5453 10.59C94.952 10.5033 94.5153 10.3367 94.2353 10.09C93.962 9.83667 93.8253 9.47333 93.8253 9C93.8253 8.49333 93.992 8.1 94.3253 7.82C94.6653 7.54 95.1553 7.4 95.7953 7.4H96.1753C96.7353 7.4 97.1886 7.53333 97.5353 7.8C97.8886 8.06 98.0886 8.41333 98.1353 8.86H97.0553C97.022 8.69333 96.9286 8.56 96.7753 8.46C96.622 8.36 96.422 8.31 96.1753 8.31H95.7953C95.1953 8.31 94.8953 8.54333 94.8953 9.01C94.8953 9.21 94.9553 9.36 95.0753 9.46C95.1953 9.56 95.3953 9.63 95.6753 9.67L96.3953 9.78C97.022 9.87333 97.4786 10.05 97.7653 10.31C98.0586 10.5633 98.2053 10.9333 98.2053 11.42C98.2053 11.9533 98.0286 12.3667 97.6753 12.66C97.3286 12.9533 96.8186 13.1 96.1453 13.1H95.7253ZM101.831 13.1C101.598 13.1 101.405 13.02 101.251 12.86C101.098 12.7 101.021 12.4967 101.021 12.25C101.021 12.01 101.098 11.81 101.251 11.65C101.405 11.49 101.598 11.41 101.831 11.41H102.061C102.295 11.41 102.488 11.49 102.641 11.65C102.795 11.81 102.871 12.01 102.871 12.25C102.871 12.4967 102.795 12.7 102.641 12.86C102.488 13.02 102.295 13.1 102.061 13.1H101.831ZM108.738 6.61C108.531 6.61 108.364 6.55333 108.238 6.44C108.118 6.32667 108.058 6.17667 108.058 5.99C108.058 5.79667 108.118 5.64333 108.238 5.53C108.364 5.41 108.531 5.35 108.738 5.35H108.938C109.138 5.35 109.301 5.41 109.428 5.53C109.554 5.65 109.618 5.80333 109.618 5.99C109.618 6.17667 109.554 6.32667 109.428 6.44C109.301 6.55333 109.134 6.61 108.928 6.61H108.738ZM105.778 14.8V13.8H107.158C107.531 13.8 107.818 13.7 108.018 13.5C108.224 13.3 108.328 13.0167 108.328 12.65V8.49H106.078V7.5H109.408V12.66C109.408 13.3133 109.208 13.8333 108.808 14.22C108.408 14.6067 107.868 14.8 107.188 14.8H105.778ZM113.974 7.41C114.64 7.41 115.164 7.57333 115.544 7.9C115.924 8.22667 116.114 8.67333 116.114 9.24V13H115.064V11.99H115.054C115.007 12.33 114.827 12.6 114.514 12.8C114.207 13 113.824 13.1 113.364 13.1C112.804 13.1 112.357 12.9533 112.024 12.66C111.697 12.36 111.534 11.96 111.534 11.46C111.534 10.9267 111.707 10.51 112.054 10.21C112.4 9.91 112.884 9.76 113.504 9.76H115.034V9.26C115.034 8.96 114.94 8.73 114.754 8.57C114.567 8.40333 114.3 8.32 113.954 8.32C113.647 8.32 113.397 8.38333 113.204 8.51C113.017 8.63 112.904 8.8 112.864 9.02H111.804C111.864 8.53333 112.09 8.14333 112.484 7.85C112.877 7.55667 113.374 7.41 113.974 7.41ZM113.674 12.27C114.08 12.27 114.407 12.1767 114.654 11.99C114.907 11.7967 115.034 11.54 115.034 11.22V10.5H113.524C113.244 10.5 113.02 10.58 112.854 10.74C112.694 10.8933 112.614 11.1033 112.614 11.37C112.614 11.65 112.707 11.87 112.894 12.03C113.087 12.19 113.347 12.27 113.674 12.27ZM119.22 13L117.43 7.5H118.54L119.64 11.01C119.753 11.3767 119.856 11.7533 119.95 12.14C120.05 11.7533 120.153 11.38 120.26 11.02L121.33 7.5H122.43L120.64 13H119.22ZM125.966 7.41C126.632 7.41 127.156 7.57333 127.536 7.9C127.916 8.22667 128.106 8.67333 128.106 9.24V13H127.056V11.99H127.046C126.999 12.33 126.819 12.6 126.506 12.8C126.199 13 125.816 13.1 125.356 13.1C124.796 13.1 124.349 12.9533 124.016 12.66C123.689 12.36 123.526 11.96 123.526 11.46C123.526 10.9267 123.699 10.51 124.046 10.21C124.392 9.91 124.876 9.76 125.496 9.76H127.026V9.26C127.026 8.96 126.932 8.73 126.746 8.57C126.559 8.40333 126.292 8.32 125.946 8.32C125.639 8.32 125.389 8.38333 125.196 8.51C125.009 8.63 124.896 8.8 124.856 9.02H123.796C123.856 8.53333 124.082 8.14333 124.476 7.85C124.869 7.55667 125.366 7.41 125.966 7.41ZM125.666 12.27C126.072 12.27 126.399 12.1767 126.646 11.99C126.899 11.7967 127.026 11.54 127.026 11.22V10.5H125.516C125.236 10.5 125.012 10.58 124.846 10.74C124.686 10.8933 124.606 11.1033 124.606 11.37C124.606 11.65 124.699 11.87 124.886 12.03C125.079 12.19 125.339 12.27 125.666 12.27Z" fill="black"/>
<defs>
<clipPath id="clip0">
<rect width="1042.04" height="709.089" fill="white" transform="translate(0 18)"/>
</clipPath>
</defs>
</svg>
